<?xml version="1.0" encoding="utf-8"?>
<svg viewBox="130.532 259.402 488.384 65.266" width="488.384" height="65.266" xmlns="http://www.w3.org/2000/svg">
  <g transform="matrix(1, 0, 0, 1, 151.111923, 245.271271)">
    <g>
      <g/>
    </g>
    <path class="st0" d="M81.6,40.9L47,21.1c-2.9-1.6-6.5,0.4-6.5,3.8l0.1,39.9c0,3.3,3.6,5.4,6.5,3.7l34.5-20.1 C84.5,46.7,84.5,42.5,81.6,40.9z" style="fill: rgb(255, 255, 255);"/>
  </g>
  <path d="M 301.997 364.052 L 299.807 364.052 L 299.807 359.682 L 301.997 359.682 L 301.997 364.052 Z M 301.997 373.802 L 299.807 373.802 L 299.807 369.472 L 301.997 369.472 L 301.997 373.802 Z M 285.567 369.472 L 287.627 369.472 L 287.627 373.802 L 285.567 373.802 L 285.567 369.472 Z M 294.767 369.472 L 294.767 373.802 L 292.667 373.802 L 292.667 369.472 L 294.767 369.472 Z M 292.667 364.052 L 292.667 359.682 L 294.767 359.682 L 294.767 364.052 L 292.667 364.052 Z M 285.567 359.682 L 287.627 359.682 L 287.627 364.052 L 285.567 364.052 L 285.567 359.682 Z M 280.197 364.052 L 274.607 364.052 L 274.607 369.472 L 280.197 369.472 L 280.197 373.802 L 275.327 373.802 L 275.327 379.212 L 312.197 379.212 L 312.197 373.802 L 307.577 373.802 L 307.577 369.472 L 312.827 369.472 L 312.827 364.052 L 307.577 364.052 L 307.577 359.682 L 311.317 359.682 L 311.317 354.352 L 286.747 354.352 C 287.247 353.552 287.667 352.752 288.087 351.912 L 282.087 350.152 C 280.317 353.892 277.007 357.582 273.477 359.772 C 274.907 360.692 277.337 362.622 278.477 363.762 C 279.057 363.342 279.607 362.832 280.197 362.292 L 280.197 364.052 Z M 280.027 390.092 C 281.957 387.782 283.677 384.302 284.567 381.022 L 278.597 379.592 C 277.677 382.662 275.867 385.982 274.107 387.742 L 280.027 390.092 Z M 286.287 381.272 C 286.747 383.962 287.037 387.492 287.037 389.592 L 293.047 388.712 C 293.007 386.612 292.497 383.202 291.957 380.602 L 286.287 381.272 Z M 294.517 381.442 C 295.397 384.092 296.277 387.532 296.487 389.632 L 302.627 388.452 C 302.287 386.312 301.277 382.992 300.267 380.472 L 294.517 381.442 Z M 302.747 381.232 C 304.517 384.002 306.657 387.742 307.497 390.052 L 313.797 387.992 C 312.747 385.602 310.437 382.032 308.627 379.422 L 302.747 381.232 ZM 345.118 357.082 C 343.728 355.532 340.708 353.432 338.398 352.042 L 335.458 356.162 C 337.768 357.712 340.708 360.022 341.968 361.662 L 345.118 357.082 Z M 333.698 366.742 C 336.088 368.252 339.198 370.562 340.578 372.162 L 343.648 367.292 C 342.138 365.732 338.948 363.672 336.548 362.372 L 333.698 366.742 Z M 321.978 362.542 C 321.808 359.852 321.048 355.742 319.998 352.592 L 315.798 353.682 C 316.728 356.832 317.438 361.032 317.478 363.722 L 321.978 362.542 Z M 355.998 377.952 L 355.118 372.282 L 351.168 373.002 L 351.168 350.112 L 345.458 350.112 L 345.458 374.012 L 333.648 376.112 C 332.558 374.802 329.078 370.982 327.818 369.932 L 327.818 369.762 L 333.648 369.762 L 333.648 364.092 L 327.818 364.092 L 327.818 362.502 L 331.548 363.462 C 332.558 360.942 333.778 356.912 334.868 353.382 L 329.788 352.332 C 329.408 355.272 328.568 359.392 327.818 362.162 L 327.818 350.402 L 322.188 350.402 L 322.188 364.092 L 316.058 364.092 L 316.058 369.762 L 320.208 369.762 C 318.998 373.172 317.148 377.112 315.218 379.472 C 316.098 381.192 317.398 383.962 317.898 385.852 C 319.498 383.412 320.968 379.972 322.188 376.362 L 322.188 389.922 L 327.818 389.922 L 327.818 376.652 C 328.738 378.252 329.618 379.842 330.168 381.062 L 333.608 376.612 L 334.448 381.862 L 345.458 379.892 L 345.458 390.012 L 351.168 390.012 L 351.168 378.842 L 355.998 377.952 ZM 387.949 364.222 L 384.299 365.732 C 385.639 367.662 386.349 369.052 387.489 371.492 L 391.229 369.852 C 390.469 368.292 388.999 365.772 387.949 364.222 Z M 392.699 362.202 L 389.079 363.842 C 390.469 365.732 391.269 367.032 392.489 369.432 L 396.179 367.662 C 395.339 366.152 393.789 363.722 392.699 362.202 Z M 359.519 356.702 L 360.149 363.552 C 365.139 362.462 372.449 361.622 376.019 361.242 C 373.799 363.252 370.769 367.662 370.769 373.382 C 370.769 382.242 378.709 387.282 387.989 387.992 L 390.339 380.982 C 383.159 380.562 377.409 378.162 377.409 372.032 C 377.409 367.122 381.269 362.252 385.769 361.242 C 388.079 360.782 391.599 360.782 393.749 360.732 L 393.699 354.272 C 390.679 354.392 385.769 354.642 381.609 354.982 C 374.009 355.652 367.709 356.162 363.799 356.492 C 362.999 356.582 361.199 356.662 359.519 356.702 ZM 423.139 384.342 L 415.829 384.342 L 417.339 383.922 C 417.089 382.872 416.459 381.442 415.739 380.222 L 423.849 380.222 C 423.389 381.522 422.719 383.042 422.129 384.132 L 423.139 384.342 Z M 425.909 372.752 L 425.909 375.432 L 413.009 375.432 L 413.009 372.752 L 425.909 372.752 Z M 411.959 366.152 L 427.499 366.152 L 427.499 364.722 C 428.679 365.902 429.979 366.992 431.329 367.962 L 408.389 367.962 C 409.649 367.032 410.829 366.072 411.959 364.982 L 411.959 366.152 Z M 432.209 368.552 C 433.429 369.342 434.729 370.062 436.069 370.692 C 436.949 369.132 438.759 366.782 440.149 365.612 C 437.999 364.812 435.989 363.722 434.179 362.412 C 435.779 361.282 437.539 359.892 439.099 358.552 L 434.639 355.442 C 433.589 356.662 432.039 358.092 430.529 359.352 C 430.019 358.842 429.559 358.342 429.099 357.792 C 430.819 356.662 432.709 355.232 434.479 353.802 L 429.899 350.572 C 428.969 351.622 427.709 352.882 426.409 354.012 C 425.699 352.842 425.069 351.582 424.559 350.322 L 419.309 351.912 C 420.699 355.272 422.379 358.382 424.399 361.112 L 415.409 361.112 C 417.129 358.802 418.559 356.242 419.609 353.432 L 415.619 351.412 L 414.609 351.662 L 404.109 351.662 L 404.109 356.532 L 411.629 356.532 C 410.909 357.632 410.069 358.722 409.149 359.732 C 408.019 358.722 406.249 357.542 404.869 356.792 L 401.589 360.152 C 402.849 360.992 404.399 362.162 405.449 363.172 C 403.519 364.682 401.339 365.982 399.149 366.912 C 400.369 367.962 402.009 370.022 402.809 371.322 C 404.279 370.602 405.709 369.762 407.089 368.882 L 407.089 380.222 L 411.379 380.222 L 409.529 380.682 C 410.159 381.782 410.789 383.162 411.169 384.342 L 401.719 384.342 L 401.719 389.292 L 437.839 389.292 L 437.839 384.342 L 428.049 384.342 C 428.639 383.292 429.309 381.942 430.069 380.432 L 429.019 380.222 L 432.209 380.222 L 432.209 368.552 ZM 442.91 375.222 C 443.45 377.452 444 380.352 444.08 382.282 L 448.07 381.192 C 447.86 379.302 447.32 376.482 446.69 374.262 L 442.91 375.222 Z M 447.7 360.652 C 449.04 359.012 450.13 357.372 451.06 355.822 C 452.48 357.292 454 359.102 455.05 360.652 L 447.7 360.652 Z M 476.84 377.202 C 478.27 375.942 480.04 374.052 481.8 372.202 L 477.05 369.302 C 476.26 370.692 474.95 372.492 473.78 373.882 C 473.23 372.702 472.77 371.532 472.43 370.442 L 472.43 368.842 L 481.09 368.842 L 481.09 363.722 L 478.15 363.722 L 478.15 351.412 L 460.51 351.412 L 460.51 356.372 L 472.52 356.372 L 472.52 357.842 L 461.47 357.842 L 461.47 362.412 L 472.52 362.412 L 472.52 363.722 L 458.57 363.722 L 458.57 368.842 L 466.81 368.842 L 466.81 380.732 L 465.46 377.412 C 462.77 379.092 460.04 380.772 457.99 381.902 L 457.94 381.362 L 453.28 382.152 L 453.28 380.432 L 456.81 381.362 C 457.36 379.722 458.03 377.282 458.78 374.972 L 454.5 373.962 C 454.29 375.772 453.79 378.292 453.28 380.102 L 453.28 373.082 L 458.11 373.082 L 458.11 367.962 L 453.28 367.962 L 453.28 365.692 L 457.36 365.692 L 457.36 360.652 L 456.94 360.652 L 459.75 357.252 C 458.24 355.062 455.13 352.172 452.69 350.152 L 447.82 350.152 C 446.56 353.382 444.25 357.162 440.85 360.062 C 441.98 360.862 443.71 362.832 444.46 364.052 L 444.67 363.842 L 444.67 365.692 L 448.07 365.692 L 448.07 367.962 L 442.78 367.962 L 442.78 373.082 L 448.07 373.082 L 448.07 382.992 C 445.93 383.332 443.92 383.672 442.28 383.882 L 443.41 389.382 C 447.7 388.542 453.24 387.452 458.36 386.402 L 458.15 384.092 L 459.96 387.242 C 462.14 385.812 464.58 384.042 466.81 382.362 L 466.81 384.342 C 466.81 384.762 466.68 384.882 466.26 384.882 C 465.88 384.882 464.71 384.882 463.78 384.842 C 464.41 386.352 465.04 388.542 465.17 390.052 C 467.48 390.052 469.24 389.972 470.67 389.132 C 472.14 388.292 472.43 386.862 472.43 384.462 L 472.43 381.362 C 473.95 384.002 475.88 386.482 478.31 388.082 C 479.15 386.522 481 384.172 482.22 383.082 C 478.99 381.482 476.59 378.792 474.87 375.902 L 476.84 377.202 Z M 466.55 375.012 C 465.8 373.462 463.99 371.322 462.35 369.852 L 458.41 372.412 C 459.96 374.012 461.68 376.272 462.31 377.832 L 466.55 375.012 ZM 500.101 372.332 C 500.101 370.442 501.491 369.642 502.751 369.642 C 503.671 369.642 504.511 370.022 505.021 370.732 C 505.481 373.922 504.091 374.892 502.751 374.892 C 501.451 374.892 500.101 373.842 500.101 372.332 Z M 521.901 356.532 C 519.721 356.492 514.131 356.582 510.271 356.582 L 510.271 356.112 C 510.311 355.362 510.481 352.802 510.601 352.002 L 503.341 352.002 C 503.501 352.802 503.671 354.562 503.801 356.162 L 503.841 356.622 C 498.461 356.702 491.111 356.872 486.281 356.832 L 486.451 362.882 C 491.531 362.622 497.671 362.372 503.921 362.292 L 503.971 364.392 C 503.631 364.352 503.291 364.352 502.921 364.352 C 498.091 364.352 494.051 367.412 494.051 372.452 C 494.051 377.832 498.381 380.432 501.451 380.432 C 501.701 380.432 501.951 380.432 502.201 380.392 C 499.771 382.322 496.281 383.332 492.671 384.042 L 498.001 389.422 C 508.421 386.612 511.861 379.382 511.861 374.052 C 511.861 371.782 511.321 369.722 510.221 368.042 C 510.221 366.322 510.221 364.222 510.181 362.252 C 515.431 362.292 519.341 362.372 521.821 362.502 L 521.901 356.532 ZM 545.072 382.872 C 542.972 382.872 541.592 381.942 541.592 380.642 C 541.592 379.802 542.392 379.002 543.732 379.002 C 545.492 379.002 546.752 380.472 546.962 382.782 C 546.382 382.832 545.752 382.872 545.072 382.872 Z M 554.522 353.012 C 553.982 353.172 552.802 353.342 550.832 353.512 C 548.352 353.722 540.032 353.852 537.812 353.852 C 536.422 353.852 534.872 353.762 533.572 353.592 L 533.782 360.102 C 534.782 359.942 536.252 359.812 537.512 359.732 C 539.742 359.562 544.022 359.392 546.122 359.352 C 544.112 361.152 540.242 364.142 537.932 366.072 C 535.462 368.082 530.632 372.202 527.942 374.302 L 532.522 379.052 C 536.512 374.172 540.872 370.522 546.962 370.522 C 551.542 370.522 555.202 372.752 555.202 376.322 C 555.202 378.332 554.402 379.972 552.762 381.102 C 552.052 377.162 548.772 374.222 543.692 374.222 C 538.982 374.222 535.622 377.622 535.622 381.272 C 535.622 385.852 540.502 388.582 546.382 388.582 C 557.132 388.582 561.832 382.912 561.832 376.402 C 561.832 370.142 556.202 365.562 549.062 365.562 C 548.062 365.562 547.262 365.612 546.172 365.822 C 548.432 364.052 552.092 361.072 554.442 359.472 C 555.492 358.762 556.542 358.132 557.632 357.462 L 554.522 353.012 Z" transform="matrix(1, 0, 0, 1, -9.402654647827148, -79.64601135253906)" style="fill: rgb(255, 255, 255); white-space: pre;"/>
</svg>