<?xml version="1.0" encoding="utf-8"?>
<svg viewBox="-12.378 146.533 452.487 98.333" width="452.487" height="98.333" xmlns="http://www.w3.org/2000/svg">
  <g transform="matrix(1, 0, 0, 1, -10.997622, 150.87793)">
    <g>
      <g/>
    </g>
    <path class="st0" d="M81.6,40.9L47,21.1c-2.9-1.6-6.5,0.4-6.5,3.8l0.1,39.9c0,3.3,3.6,5.4,6.5,3.7l34.5-20.1 C84.5,46.7,84.5,42.5,81.6,40.9z" style="fill: rgb(255, 255, 255);"/>
  </g>
  <path d="M 130.864 204.966 C 126.774 208.866 118.424 210.546 109.574 211.166 C 110.584 212.416 111.634 214.366 112.144 215.806 C 122.094 214.636 130.594 212.496 135.854 207.186 L 130.864 204.966 Z M 126.424 200.986 C 123.454 203.096 117.454 204.576 112.414 205.276 C 113.554 206.376 114.764 208.046 115.384 209.256 C 121.034 208.126 127.004 206.176 130.864 203.136 L 126.424 200.986 Z M 140.774 195.996 L 140.774 191.276 L 121.624 191.276 C 121.934 190.576 122.244 189.836 122.484 189.096 C 125.794 188.976 129.224 188.826 132.584 188.626 C 133.444 189.606 134.184 190.456 134.724 191.236 L 139.644 188.396 C 137.654 185.856 133.554 182.306 130.514 179.926 L 125.994 182.426 C 126.614 182.976 127.274 183.516 127.944 184.146 C 125.014 184.216 122.094 184.296 119.284 184.376 C 120.294 183.086 121.354 181.686 122.364 180.246 L 116.004 178.726 C 115.304 180.516 114.174 182.696 112.964 184.566 L 106.174 184.726 L 106.764 189.676 C 109.534 189.606 112.804 189.486 116.314 189.326 C 116.044 189.996 115.734 190.656 115.424 191.276 L 104.934 191.276 L 104.934 195.996 L 112.224 195.996 C 109.884 198.606 106.964 200.676 103.524 202.086 C 104.734 203.096 106.844 205.276 107.664 206.446 C 110.194 205.166 112.494 203.486 114.564 201.536 C 115.114 202.086 115.574 202.706 115.934 203.176 C 119.754 202.396 124.314 200.986 127.434 198.966 L 123.104 196.856 C 121.664 197.676 119.284 198.456 116.864 199.076 C 117.644 198.106 118.424 197.086 119.124 195.996 L 126.654 195.996 C 129.544 200.246 133.484 203.916 137.964 206.056 C 138.784 204.736 140.424 202.666 141.634 201.616 C 138.434 200.366 135.394 198.336 133.054 195.996 L 140.774 195.996 ZM 156.556 191.046 C 156.286 203.056 156.016 207.616 155.276 208.636 C 154.886 209.216 154.536 209.416 153.946 209.416 C 153.246 209.416 152.076 209.376 150.706 209.256 C 152.696 204.226 153.396 198.106 153.676 191.046 L 156.556 191.046 Z M 153.786 185.506 C 153.826 183.516 153.826 181.456 153.826 179.306 L 148.256 179.306 L 148.256 185.506 L 144.116 185.506 L 144.116 191.046 L 148.176 191.046 C 147.936 199.816 146.966 206.646 142.826 211.516 C 144.236 212.416 146.106 214.366 146.966 215.776 C 148.526 213.896 149.736 211.796 150.666 209.456 C 151.526 211.056 152.116 213.396 152.196 214.956 C 154.026 214.986 155.736 214.986 156.946 214.676 C 158.316 214.366 159.206 213.856 160.226 212.376 C 161.476 210.506 161.746 204.306 162.096 188.006 C 162.136 187.296 162.136 185.506 162.136 185.506 L 153.786 185.506 Z M 169.196 206.766 L 169.196 188.436 L 172.786 188.436 L 172.786 206.766 L 169.196 206.766 Z M 163.776 182.976 L 163.776 214.876 L 169.196 214.876 L 169.196 212.226 L 172.786 212.226 L 172.786 214.566 L 178.476 214.566 L 178.476 182.976 L 163.776 182.976 ZM 203.978 210.466 L 197.188 210.466 L 198.598 210.076 C 198.358 209.106 197.778 207.776 197.108 206.646 L 204.638 206.646 C 204.208 207.856 203.588 209.256 203.038 210.276 L 203.978 210.466 Z M 206.548 199.706 L 206.548 202.196 L 194.578 202.196 L 194.578 199.706 L 206.548 199.706 Z M 193.598 193.576 L 208.028 193.576 L 208.028 192.256 C 209.128 193.346 210.328 194.356 211.578 195.256 L 190.288 195.256 C 191.458 194.396 192.548 193.506 193.598 192.486 L 193.598 193.576 Z M 212.398 195.806 C 213.528 196.546 214.738 197.206 215.988 197.796 C 216.808 196.346 218.478 194.166 219.768 193.076 C 217.778 192.336 215.908 191.316 214.228 190.106 C 215.718 189.056 217.348 187.766 218.798 186.516 L 214.658 183.636 C 213.688 184.766 212.238 186.096 210.838 187.266 C 210.368 186.796 209.938 186.326 209.508 185.816 C 211.108 184.766 212.868 183.436 214.508 182.116 L 210.258 179.116 C 209.398 180.086 208.228 181.256 207.018 182.306 C 206.358 181.216 205.768 180.046 205.298 178.876 L 200.428 180.356 C 201.718 183.476 203.278 186.366 205.148 188.896 L 196.798 188.896 C 198.398 186.756 199.728 184.376 200.698 181.766 L 196.998 179.896 L 196.058 180.126 L 186.308 180.126 L 186.308 184.646 L 193.288 184.646 C 192.628 185.666 191.848 186.676 190.988 187.616 C 189.938 186.676 188.298 185.586 187.008 184.886 L 183.968 188.006 C 185.138 188.786 186.578 189.876 187.558 190.816 C 185.758 192.216 183.738 193.426 181.708 194.286 C 182.838 195.256 184.358 197.166 185.098 198.376 C 186.468 197.716 187.788 196.936 189.078 196.116 L 189.078 206.646 L 193.058 206.646 L 191.338 207.076 C 191.928 208.086 192.508 209.376 192.858 210.466 L 184.088 210.466 L 184.088 215.066 L 217.628 215.066 L 217.628 210.466 L 208.538 210.466 C 209.088 209.496 209.708 208.246 210.408 206.836 L 209.438 206.646 L 212.398 206.646 L 212.398 195.806 ZM 222.34 202.006 C 222.84 204.066 223.35 206.766 223.43 208.556 L 227.13 207.546 C 226.94 205.786 226.43 203.176 225.85 201.106 L 222.34 202.006 Z M 226.78 188.476 C 228.03 186.946 229.04 185.426 229.9 183.986 C 231.23 185.356 232.63 187.026 233.61 188.476 L 226.78 188.476 Z M 253.85 203.836 C 255.17 202.666 256.81 200.916 258.45 199.196 L 254.04 196.506 C 253.3 197.796 252.09 199.466 251 200.756 C 250.49 199.666 250.07 198.576 249.75 197.556 L 249.75 196.076 L 257.79 196.076 L 257.79 191.316 L 255.06 191.316 L 255.06 179.896 L 238.68 179.896 L 238.68 184.496 L 249.83 184.496 L 249.83 185.856 L 239.57 185.856 L 239.57 190.106 L 249.83 190.106 L 249.83 191.316 L 236.88 191.316 L 236.88 196.076 L 244.53 196.076 L 244.53 207.116 L 243.28 204.036 C 240.78 205.596 238.25 207.156 236.34 208.206 L 236.3 207.696 L 231.97 208.436 L 231.97 206.836 L 235.25 207.696 C 235.75 206.176 236.38 203.916 237.08 201.766 L 233.1 200.836 C 232.91 202.516 232.44 204.856 231.97 206.526 L 231.97 200.016 L 236.45 200.016 L 236.45 195.256 L 231.97 195.256 L 231.97 193.156 L 235.75 193.156 L 235.75 188.476 L 235.36 188.476 L 237.98 185.316 C 236.57 183.286 233.69 180.596 231.42 178.726 L 226.9 178.726 C 225.73 181.726 223.58 185.236 220.43 187.926 C 221.48 188.666 223.08 190.496 223.78 191.626 L 223.97 191.436 L 223.97 193.156 L 227.13 193.156 L 227.13 195.256 L 222.22 195.256 L 222.22 200.016 L 227.13 200.016 L 227.13 209.216 C 225.14 209.526 223.27 209.846 221.75 210.036 L 222.8 215.146 C 226.78 214.366 231.93 213.356 236.69 212.376 L 236.49 210.236 L 238.17 213.156 C 240.2 211.836 242.46 210.196 244.53 208.636 L 244.53 210.466 C 244.53 210.856 244.41 210.976 244.02 210.976 C 243.67 210.976 242.58 210.976 241.72 210.936 C 242.3 212.336 242.89 214.366 243.01 215.776 C 245.15 215.776 246.79 215.696 248.12 214.916 C 249.48 214.136 249.75 212.806 249.75 210.586 L 249.75 207.696 C 251.16 210.156 252.95 212.456 255.21 213.936 C 255.99 212.496 257.71 210.316 258.84 209.296 C 255.84 207.816 253.61 205.316 252.02 202.626 L 253.85 203.836 Z M 244.29 201.806 C 243.59 200.366 241.91 198.376 240.39 197.016 L 236.73 199.386 C 238.17 200.876 239.77 202.976 240.35 204.426 L 244.29 201.806 ZM 275.442 199.316 C 275.442 197.556 276.732 196.816 277.902 196.816 C 278.762 196.816 279.542 197.166 280.012 197.836 C 280.442 200.796 279.152 201.696 277.902 201.696 C 276.692 201.696 275.442 200.716 275.442 199.316 Z M 295.692 184.646 C 293.662 184.606 288.472 184.686 284.882 184.686 L 284.882 184.256 C 284.922 183.556 285.082 181.176 285.192 180.436 L 278.452 180.436 C 278.602 181.176 278.762 182.816 278.882 184.296 L 278.922 184.726 C 273.922 184.806 267.102 184.956 262.612 184.926 L 262.772 190.536 C 267.492 190.306 273.182 190.066 278.992 189.996 L 279.032 191.946 C 278.722 191.906 278.412 191.906 278.062 191.906 C 273.572 191.906 269.832 194.746 269.832 199.426 C 269.832 204.426 273.852 206.836 276.692 206.836 C 276.932 206.836 277.162 206.836 277.392 206.806 C 275.132 208.596 271.902 209.526 268.542 210.196 L 273.492 215.186 C 283.172 212.576 286.362 205.866 286.362 200.916 C 286.362 198.806 285.862 196.896 284.842 195.336 C 284.842 193.736 284.842 191.786 284.802 189.956 C 289.682 189.996 293.312 190.066 295.612 190.186 L 295.692 184.646 ZM 317.204 209.106 C 315.254 209.106 313.974 208.246 313.974 207.036 C 313.974 206.256 314.714 205.516 315.964 205.516 C 317.594 205.516 318.764 206.876 318.964 209.026 C 318.414 209.066 317.834 209.106 317.204 209.106 Z M 325.984 181.376 C 325.474 181.526 324.384 181.686 322.554 181.836 C 320.254 182.036 312.524 182.156 310.464 182.156 C 309.174 182.156 307.734 182.076 306.524 181.916 L 306.714 187.966 C 307.654 187.806 309.014 187.686 310.184 187.616 C 312.254 187.456 316.234 187.296 318.184 187.266 C 316.314 188.936 312.724 191.706 310.574 193.506 C 308.274 195.376 303.794 199.196 301.294 201.146 L 305.544 205.556 C 309.254 201.026 313.304 197.636 318.964 197.636 C 323.214 197.636 326.604 199.706 326.604 203.016 C 326.604 204.886 325.864 206.406 324.344 207.466 C 323.684 203.796 320.644 201.066 315.924 201.066 C 311.554 201.066 308.434 204.226 308.434 207.616 C 308.434 211.866 312.954 214.406 318.414 214.406 C 328.404 214.406 332.764 209.146 332.764 203.096 C 332.764 197.286 327.544 193.036 320.914 193.036 C 319.974 193.036 319.234 193.076 318.224 193.266 C 320.324 191.626 323.724 188.866 325.904 187.376 C 326.874 186.716 327.854 186.136 328.864 185.506 L 325.984 181.376 Z" transform="matrix(1, 0, 0, 1, 0, 0)" style="fill: rgb(255, 255, 255); white-space: pre;"/>
</svg>