<?xml version="1.0" encoding="utf-8"?>
<svg viewBox="181.97 252.212 379.424 79.646" width="379.424" height="79.646" xmlns="http://www.w3.org/2000/svg">
  <g transform="matrix(1, 0, 0, 1, 151.111923, 245.271271)">
    <g>
      <g/>
    </g>
    <path class="st0" d="M81.6,40.9L47,21.1c-2.9-1.6-6.5,0.4-6.5,3.8l0.1,39.9c0,3.3,3.6,5.4,6.5,3.7l34.5-20.1 C84.5,46.7,84.5,42.5,81.6,40.9z" style="fill: rgb(255, 255, 255);"/>
  </g>
  <path d="M 301.997 364.052 L 299.807 364.052 L 299.807 359.682 L 301.997 359.682 L 301.997 364.052 Z M 301.997 373.802 L 299.807 373.802 L 299.807 369.472 L 301.997 369.472 L 301.997 373.802 Z M 285.567 369.472 L 287.627 369.472 L 287.627 373.802 L 285.567 373.802 L 285.567 369.472 Z M 294.767 369.472 L 294.767 373.802 L 292.667 373.802 L 292.667 369.472 L 294.767 369.472 Z M 292.667 364.052 L 292.667 359.682 L 294.767 359.682 L 294.767 364.052 L 292.667 364.052 Z M 285.567 359.682 L 287.627 359.682 L 287.627 364.052 L 285.567 364.052 L 285.567 359.682 Z M 280.197 364.052 L 274.607 364.052 L 274.607 369.472 L 280.197 369.472 L 280.197 373.802 L 275.327 373.802 L 275.327 379.212 L 312.197 379.212 L 312.197 373.802 L 307.577 373.802 L 307.577 369.472 L 312.827 369.472 L 312.827 364.052 L 307.577 364.052 L 307.577 359.682 L 311.317 359.682 L 311.317 354.352 L 286.747 354.352 C 287.247 353.552 287.667 352.752 288.087 351.912 L 282.087 350.152 C 280.317 353.892 277.007 357.582 273.477 359.772 C 274.907 360.692 277.337 362.622 278.477 363.762 C 279.057 363.342 279.607 362.832 280.197 362.292 L 280.197 364.052 Z M 280.027 390.092 C 281.957 387.782 283.677 384.302 284.567 381.022 L 278.597 379.592 C 277.677 382.662 275.867 385.982 274.107 387.742 L 280.027 390.092 Z M 286.287 381.272 C 286.747 383.962 287.037 387.492 287.037 389.592 L 293.047 388.712 C 293.007 386.612 292.497 383.202 291.957 380.602 L 286.287 381.272 Z M 294.517 381.442 C 295.397 384.092 296.277 387.532 296.487 389.632 L 302.627 388.452 C 302.287 386.312 301.277 382.992 300.267 380.472 L 294.517 381.442 Z M 302.747 381.232 C 304.517 384.002 306.657 387.742 307.497 390.052 L 313.797 387.992 C 312.747 385.602 310.437 382.032 308.627 379.422 L 302.747 381.232 ZM 345.12 357.082 C 343.73 355.532 340.71 353.432 338.4 352.042 L 335.46 356.162 C 337.77 357.712 340.71 360.022 341.97 361.662 L 345.12 357.082 Z M 333.7 366.742 C 336.09 368.252 339.2 370.562 340.58 372.162 L 343.65 367.292 C 342.14 365.732 338.95 363.672 336.55 362.372 L 333.7 366.742 Z M 321.98 362.542 C 321.81 359.852 321.05 355.742 320 352.592 L 315.8 353.682 C 316.73 356.832 317.44 361.032 317.48 363.722 L 321.98 362.542 Z M 356 377.952 L 355.12 372.282 L 351.17 373.002 L 351.17 350.112 L 345.46 350.112 L 345.46 374.012 L 333.65 376.112 C 332.56 374.802 329.08 370.982 327.82 369.932 L 327.82 369.762 L 333.65 369.762 L 333.65 364.092 L 327.82 364.092 L 327.82 362.502 L 331.55 363.462 C 332.56 360.942 333.78 356.912 334.87 353.382 L 329.79 352.332 C 329.41 355.272 328.57 359.392 327.82 362.162 L 327.82 350.402 L 322.19 350.402 L 322.19 364.092 L 316.06 364.092 L 316.06 369.762 L 320.21 369.762 C 319 373.172 317.15 377.112 315.22 379.472 C 316.1 381.192 317.4 383.962 317.9 385.852 C 319.5 383.412 320.97 379.972 322.19 376.362 L 322.19 389.922 L 327.82 389.922 L 327.82 376.652 C 328.74 378.252 329.62 379.842 330.17 381.062 L 333.61 376.612 L 334.45 381.862 L 345.46 379.892 L 345.46 390.012 L 351.17 390.012 L 351.17 378.842 L 356 377.952 ZM 387.953 364.222 L 384.303 365.732 C 385.643 367.662 386.353 369.052 387.493 371.492 L 391.233 369.852 C 390.473 368.292 389.003 365.772 387.953 364.222 Z M 392.703 362.202 L 389.083 363.842 C 390.473 365.732 391.273 367.032 392.493 369.432 L 396.183 367.662 C 395.343 366.152 393.793 363.722 392.703 362.202 Z M 359.523 356.702 L 360.153 363.552 C 365.143 362.462 372.453 361.622 376.023 361.242 C 373.803 363.252 370.773 367.662 370.773 373.382 C 370.773 382.242 378.713 387.282 387.993 387.992 L 390.343 380.982 C 383.163 380.562 377.413 378.162 377.413 372.032 C 377.413 367.122 381.273 362.252 385.773 361.242 C 388.083 360.782 391.603 360.782 393.753 360.732 L 393.703 354.272 C 390.683 354.392 385.773 354.642 381.613 354.982 C 374.013 355.652 367.713 356.162 363.803 356.492 C 363.003 356.582 361.203 356.662 359.523 356.702 ZM 423.145 384.342 L 415.835 384.342 L 417.345 383.922 C 417.095 382.872 416.465 381.442 415.745 380.222 L 423.855 380.222 C 423.395 381.522 422.725 383.042 422.135 384.132 L 423.145 384.342 Z M 425.915 372.752 L 425.915 375.432 L 413.015 375.432 L 413.015 372.752 L 425.915 372.752 Z M 411.965 366.152 L 427.505 366.152 L 427.505 364.722 C 428.685 365.902 429.985 366.992 431.335 367.962 L 408.395 367.962 C 409.655 367.032 410.835 366.072 411.965 364.982 L 411.965 366.152 Z M 432.215 368.552 C 433.435 369.342 434.735 370.062 436.075 370.692 C 436.955 369.132 438.765 366.782 440.155 365.612 C 438.005 364.812 435.995 363.722 434.185 362.412 C 435.785 361.282 437.545 359.892 439.105 358.552 L 434.645 355.442 C 433.595 356.662 432.045 358.092 430.535 359.352 C 430.025 358.842 429.565 358.342 429.105 357.792 C 430.825 356.662 432.715 355.232 434.485 353.802 L 429.905 350.572 C 428.975 351.622 427.715 352.882 426.415 354.012 C 425.705 352.842 425.075 351.582 424.565 350.322 L 419.315 351.912 C 420.705 355.272 422.385 358.382 424.405 361.112 L 415.415 361.112 C 417.135 358.802 418.565 356.242 419.615 353.432 L 415.625 351.412 L 414.615 351.662 L 404.115 351.662 L 404.115 356.532 L 411.635 356.532 C 410.915 357.632 410.075 358.722 409.155 359.732 C 408.025 358.722 406.255 357.542 404.875 356.792 L 401.595 360.152 C 402.855 360.992 404.405 362.162 405.455 363.172 C 403.525 364.682 401.345 365.982 399.155 366.912 C 400.375 367.962 402.015 370.022 402.815 371.322 C 404.285 370.602 405.715 369.762 407.095 368.882 L 407.095 380.222 L 411.385 380.222 L 409.535 380.682 C 410.165 381.782 410.795 383.162 411.175 384.342 L 401.725 384.342 L 401.725 389.292 L 437.845 389.292 L 437.845 384.342 L 428.055 384.342 C 428.645 383.292 429.315 381.942 430.075 380.432 L 429.025 380.222 L 432.215 380.222 L 432.215 368.552 ZM 442.918 375.222 C 443.458 377.452 444.008 380.352 444.088 382.282 L 448.078 381.192 C 447.868 379.302 447.328 376.482 446.698 374.262 L 442.918 375.222 Z M 447.708 360.652 C 449.048 359.012 450.138 357.372 451.068 355.822 C 452.488 357.292 454.008 359.102 455.058 360.652 L 447.708 360.652 Z M 476.848 377.202 C 478.278 375.942 480.048 374.052 481.808 372.202 L 477.058 369.302 C 476.268 370.692 474.958 372.492 473.788 373.882 C 473.238 372.702 472.778 371.532 472.438 370.442 L 472.438 368.842 L 481.098 368.842 L 481.098 363.722 L 478.158 363.722 L 478.158 351.412 L 460.518 351.412 L 460.518 356.372 L 472.528 356.372 L 472.528 357.842 L 461.478 357.842 L 461.478 362.412 L 472.528 362.412 L 472.528 363.722 L 458.578 363.722 L 458.578 368.842 L 466.818 368.842 L 466.818 380.732 L 465.468 377.412 C 462.778 379.092 460.048 380.772 457.998 381.902 L 457.948 381.362 L 453.288 382.152 L 453.288 380.432 L 456.818 381.362 C 457.368 379.722 458.038 377.282 458.788 374.972 L 454.508 373.962 C 454.298 375.772 453.798 378.292 453.288 380.102 L 453.288 373.082 L 458.118 373.082 L 458.118 367.962 L 453.288 367.962 L 453.288 365.692 L 457.368 365.692 L 457.368 360.652 L 456.948 360.652 L 459.758 357.252 C 458.248 355.062 455.138 352.172 452.698 350.152 L 447.828 350.152 C 446.568 353.382 444.258 357.162 440.858 360.062 C 441.988 360.862 443.718 362.832 444.468 364.052 L 444.678 363.842 L 444.678 365.692 L 448.078 365.692 L 448.078 367.962 L 442.788 367.962 L 442.788 373.082 L 448.078 373.082 L 448.078 382.992 C 445.938 383.332 443.928 383.672 442.288 383.882 L 443.418 389.382 C 447.708 388.542 453.248 387.452 458.368 386.402 L 458.158 384.092 L 459.968 387.242 C 462.148 385.812 464.588 384.042 466.818 382.362 L 466.818 384.342 C 466.818 384.762 466.688 384.882 466.268 384.882 C 465.888 384.882 464.718 384.882 463.788 384.842 C 464.418 386.352 465.048 388.542 465.178 390.052 C 467.488 390.052 469.248 389.972 470.678 389.132 C 472.148 388.292 472.438 386.862 472.438 384.462 L 472.438 381.362 C 473.958 384.002 475.888 386.482 478.318 388.082 C 479.158 386.522 481.008 384.172 482.228 383.082 C 478.998 381.482 476.598 378.792 474.878 375.902 L 476.848 377.202 Z M 466.558 375.012 C 465.808 373.462 463.998 371.322 462.358 369.852 L 458.418 372.412 C 459.968 374.012 461.688 376.272 462.318 377.832 L 466.558 375.012 ZM 500.111 372.332 C 500.111 370.442 501.501 369.642 502.761 369.642 C 503.681 369.642 504.521 370.022 505.031 370.732 C 505.491 373.922 504.101 374.892 502.761 374.892 C 501.461 374.892 500.111 373.842 500.111 372.332 Z M 521.911 356.532 C 519.731 356.492 514.141 356.582 510.281 356.582 L 510.281 356.112 C 510.321 355.362 510.491 352.802 510.611 352.002 L 503.351 352.002 C 503.511 352.802 503.681 354.562 503.811 356.162 L 503.851 356.622 C 498.471 356.702 491.121 356.872 486.291 356.832 L 486.461 362.882 C 491.541 362.622 497.681 362.372 503.931 362.292 L 503.981 364.392 C 503.641 364.352 503.301 364.352 502.931 364.352 C 498.101 364.352 494.061 367.412 494.061 372.452 C 494.061 377.832 498.391 380.432 501.461 380.432 C 501.711 380.432 501.961 380.432 502.211 380.392 C 499.781 382.322 496.291 383.332 492.681 384.042 L 498.011 389.422 C 508.431 386.612 511.871 379.382 511.871 374.052 C 511.871 371.782 511.331 369.722 510.231 368.042 C 510.231 366.322 510.231 364.222 510.191 362.252 C 515.441 362.292 519.351 362.372 521.831 362.502 L 521.911 356.532 ZM 545.084 382.872 C 542.984 382.872 541.604 381.942 541.604 380.642 C 541.604 379.802 542.404 379.002 543.744 379.002 C 545.504 379.002 546.764 380.472 546.974 382.782 C 546.394 382.832 545.764 382.872 545.084 382.872 Z M 554.534 353.012 C 553.994 353.172 552.814 353.342 550.844 353.512 C 548.364 353.722 540.044 353.852 537.824 353.852 C 536.434 353.852 534.884 353.762 533.584 353.592 L 533.794 360.102 C 534.794 359.942 536.264 359.812 537.524 359.732 C 539.754 359.562 544.034 359.392 546.134 359.352 C 544.124 361.152 540.254 364.142 537.944 366.072 C 535.474 368.082 530.644 372.202 527.954 374.302 L 532.534 379.052 C 536.524 374.172 540.884 370.522 546.974 370.522 C 551.554 370.522 555.214 372.752 555.214 376.322 C 555.214 378.332 554.414 379.972 552.774 381.102 C 552.064 377.162 548.784 374.222 543.704 374.222 C 538.994 374.222 535.634 377.622 535.634 381.272 C 535.634 385.852 540.514 388.582 546.394 388.582 C 557.144 388.582 561.844 382.912 561.844 376.402 C 561.844 370.142 556.214 365.562 549.074 365.562 C 548.074 365.562 547.274 365.612 546.184 365.822 C 548.444 364.052 552.104 361.072 554.454 359.472 C 555.504 358.762 556.554 358.132 557.644 357.462 L 554.534 353.012 Z" transform="matrix(1, 0, 0, 1, -9.402654647827148, -79.64601135253906)" style="fill: rgb(255, 255, 255); white-space: pre;"/>
</svg>