<?xml version="1.0" encoding="utf-8"?>
<svg viewBox="1379.353 447.357 51.466 12.391" width="51.466" height="12.391" style="enable-background:new 0 0 128 2310.2;" xmlns="http://www.w3.org/2000/svg">
  <defs>
    <style type="text/css">
	.st0{opacity:0.58;fill:#FFFF00;}
	.st1{fill:#FFFFFF;}
	.st2{font-family:'HiraKakuStdN-W8';}
	.st3{font-size:4.4695px;}
	.st4{letter-spacing:1;}
	.st5{fill:#1B1464;}
	.st6{fill:#FFFFFF;stroke:#FFFFFF;stroke-width:1.5;stroke-linejoin:round;stroke-miterlimit:10;}
	.st7{font-size:6.2972px;}
	.st8{fill:#EB1C24;}
	.st9{fill:#FF0000;}
	.st10{font-size:2.8202px;}
	.st11{font-size:4.5217px;}
	.st12{font-size:7.7297px;}
	.st13{fill:#F5911E;}
	.st14{fill:#0000FF;}
	.st15{font-size:3.69px;}
	.st16{fill:none;stroke:#0000FF;stroke-width:0.6;stroke-miterlimit:10;}
	.st17{font-family:'KozGoPr6N-Medium';}
	.st18{font-size:2.4999px;}
	.st19{letter-spacing:-1;}
	.st20{fill:#BF272D;}
	.st21{fill:#FFFFFF;stroke:#FFFFFF;stroke-width:0.7;stroke-linejoin:round;stroke-miterlimit:10;}
	.st22{fill:#C30D23;}
	.st23{fill:#FFFFFF;stroke:#FFFFFF;stroke-width:0.2;stroke-miterlimit:10;}
	.st24{fill:#C30D23;stroke:#C30D23;stroke-width:0.2;stroke-miterlimit:10;}
	.st25{fill:#171C61;}
	.st26{fill:#171C61;stroke:#171C61;stroke-width:0.2;stroke-linejoin:round;stroke-miterlimit:10;}
	.st27{fill:#FFFFFF;stroke:#FFFFFF;stroke-width:1.1;stroke-linejoin:round;stroke-miterlimit:10;}
	.st28{fill:#171C61;stroke:#171C61;stroke-width:0.3;stroke-linejoin:round;stroke-miterlimit:10;}
	.st29{fill:#C30D23;stroke:#C30D23;stroke-width:0.3;stroke-linejoin:round;stroke-miterlimit:10;}
	.st30{font-size:4.03px;}
	.st31{fill:none;stroke:#C30D23;stroke-width:0.4;stroke-miterlimit:10;}
	.st32{fill:none;stroke:#171C61;stroke-width:0.4;stroke-miterlimit:10;}
	.st33{font-size:3.2446px;}
	.st34{font-size:2.2935px;}
	.st35{fill:url(#SVGID_3_);}
	.st36{fill:none;stroke:#FFFFFF;stroke-width:0.6;stroke-miterlimit:10;}
	.st37{fill:#FFB882;}
	.st38{fill:#FFD9D9;}
	.st39{fill:#6A9CE5;}
	.st40{fill:#4F80C9;}
	.st41{fill:#4C4242;}
	.st42{fill:#352D2D;}
	.st43{fill:#EDB2B2;}
	.st44{fill:#5F99DD;}
	.st45{fill:#E2ACAC;}
	.st46{fill:#EFC7C7;}
	.st47{fill:#917A7A;}
	.st48{fill:#F28181;}
	.st49{fill:#F4592F;}
	.st50{fill:#DD3F1B;}
	.st51{opacity:0.6;fill:#843131;}
	.st52{fill:#EA7B59;}
	.st53{fill:#472824;}
	.st54{fill:#51352E;}
	.st55{fill:#9B4848;}
	.st56{fill:#FF9566;}
	.st57{fill:#FFFCEE;}
	.st58{fill:none;stroke:#333333;stroke-width:0.1;stroke-miterlimit:10;}
	.st59{font-size:2.4px;}
	.st60{font-size:3.434px;}
	.st61{fill:none;stroke:#0000FF;stroke-width:0.7;stroke-miterlimit:10;}
	.st62{fill:none;stroke:#EB1C24;stroke-width:0.6;stroke-miterlimit:10;}
	.st63{font-size:5.3521px;}
	.st64{font-size:2.7348px;}
	.st65{font-family:'MidashiGoPr6N-MB31-90ms-RKSJ-H';}
	.st66{font-size:2.1px;}
	.st67{fill:none;stroke:#B1B1B1;stroke-width:0.1;stroke-miterlimit:10;}
	.st68{fill:url(#SVGID_6_);}
	.st69{font-size:3.2588px;}
	.st70{fill:#FFFFFF;stroke:#FFFFFF;stroke-width:0.9;stroke-linejoin:round;stroke-miterlimit:10;}
	.st71{font-size:4.1159px;}
	.st72{fill:url(#SVGID_7_);}
	.st73{font-size:6.3814px;}
	.st74{font-size:4.4px;}
	.st75{font-size:4.5972px;}
	.st76{font-size:6.0229px;}
	.st77{fill:none;stroke:#FFFFFF;stroke-linejoin:round;stroke-miterlimit:10;}
	.st78{fill:#FFFFFF;stroke:#FFFFFF;stroke-width:0.05;stroke-miterlimit:10;}
	.st79{font-size:3.815px;}
	.st80{font-size:3.2061px;}
	.st81{font-family:'KozGoPr6N-Regular-90ms-RKSJ-H';}
	.st82{font-size:1.321px;}
	.st83{fill:url(#SVGID_8_);}
	.st84{fill:url(#SVGID_9_);}
	.st85{font-size:3.9px;}
	.st86{fill:none;}
	.st87{fill:#4C4C4C;}
	.st88{font-size:1.5992px;}
	.st89{fill:none;stroke:#000000;stroke-width:0.1;stroke-miterlimit:10;}
	.st90{font-size:1.9158px;}
	.st91{font-size:5.8041px;}
	.st92{fill:#0071BA;}
	.st93{font-size:4.003px;}
	.st94{fill:#979797;}
	.st95{fill:#009045;}
	.st96{opacity:0.7;fill:url(#SVGID_10_);}
	.st97{fill:#121212;}
	.st98{fill:url(#SVGID_11_);}
	.st99{fill:url(#SVGID_12_);}
	.st100{fill:#1A171B;}
	.st101{fill:url(#SVGID_13_);}
	.st102{fill:url(#SVGID_14_);}
	.st103{opacity:0.2;fill:#E6E9F0;}
	.st104{opacity:0.3;fill:#DEEDEF;}
	.st105{opacity:0.25;fill:#FFFFFF;}
	.st106{opacity:0.15;fill:#FFFFFF;}
	.st107{fill-rule:evenodd;clip-rule:evenodd;fill:url(#SVGID_15_);}
	.st108{fill-rule:evenodd;clip-rule:evenodd;fill:url(#SVGID_16_);}
	.st109{fill-rule:evenodd;clip-rule:evenodd;fill:url(#SVGID_17_);}
	.st110{filter:url(#Adobe_OpacityMaskFilter);}
	.st111{filter:url(#Adobe_OpacityMaskFilter_1_);}
	.st112{mask:url(#SVGID_18_);fill-rule:evenodd;clip-rule:evenodd;fill:url(#SVGID_19_);}
	.st113{fill-rule:evenodd;clip-rule:evenodd;fill:url(#SVGID_20_);}
	.st114{fill-rule:evenodd;clip-rule:evenodd;fill:#141414;}
	.st115{fill:#BFBFBF;}
	.st116{fill:url(#SVGID_21_);}
	.st117{fill:url(#SVGID_22_);}
	.st118{fill:url(#SVGID_23_);}
	.st119{fill:url(#SVGID_24_);}
	.st120{fill:url(#SVGID_25_);}
	.st121{fill:url(#SVGID_26_);}
	.st122{fill:url(#SVGID_27_);}
	.st123{fill:url(#SVGID_28_);}
	.st124{fill:url(#SVGID_29_);}
	.st125{fill:#353332;}
	.st126{fill:url(#SVGID_30_);}
	.st127{fill:url(#SVGID_31_);}
	.st128{fill:url(#SVGID_32_);}
	.st129{fill:url(#SVGID_33_);}
	.st130{fill:url(#SVGID_34_);}
	.st131{fill:url(#SVGID_35_);}
	.st132{fill:url(#SVGID_36_);}
	.st133{fill:url(#SVGID_37_);}
	.st134{fill:url(#SVGID_38_);}
	.st135{filter:url(#Adobe_OpacityMaskFilter_2_);}
	.st136{filter:url(#Adobe_OpacityMaskFilter_3_);}
	.st137{mask:url(#SVGID_39_);fill:url(#SVGID_40_);}
	.st138{fill:url(#SVGID_41_);}
	.st139{fill:url(#SVGID_42_);}
	.st140{fill:url(#SVGID_43_);}
	.st141{fill:#515354;}
	.st142{fill:url(#SVGID_44_);}
	.st143{filter:url(#Adobe_OpacityMaskFilter_4_);}
	.st144{filter:url(#Adobe_OpacityMaskFilter_5_);}
	.st145{mask:url(#SVGID_45_);fill:url(#SVGID_46_);}
	.st146{fill:url(#SVGID_47_);}
	.st147{fill:url(#SVGID_48_);}
	.st148{fill:url(#SVGID_49_);}
	.st149{fill:url(#SVGID_50_);}
	.st150{fill:url(#SVGID_51_);}
	.st151{fill:url(#SVGID_52_);}
	.st152{fill:url(#SVGID_53_);}
	.st153{fill:url(#SVGID_54_);}
	.st154{fill:url(#SVGID_55_);}
	.st155{fill:url(#SVGID_56_);}
	.st156{fill:url(#SVGID_57_);}
	.st157{fill:url(#SVGID_58_);}
	.st158{fill:url(#SVGID_59_);}
	.st159{fill:url(#SVGID_60_);}
	.st160{fill:url(#SVGID_61_);}
	.st161{fill:url(#SVGID_62_);}
	.st162{fill:url(#SVGID_63_);}
	.st163{fill:url(#SVGID_64_);}
	.st164{fill:#6B6D6E;}
	.st165{fill-rule:evenodd;clip-rule:evenodd;fill:#29282C;}
	.st166{fill-rule:evenodd;clip-rule:evenodd;}
	.st167{opacity:0.4;fill-rule:evenodd;clip-rule:evenodd;fill:url(#SVGID_65_);}
	.st168{opacity:0.4;fill-rule:evenodd;clip-rule:evenodd;fill:url(#SVGID_66_);}
	.st169{opacity:0.4;fill-rule:evenodd;clip-rule:evenodd;fill:url(#SVGID_67_);}
	.st170{opacity:0.4;fill-rule:evenodd;clip-rule:evenodd;fill:url(#SVGID_68_);}
	.st171{opacity:0.4;fill-rule:evenodd;clip-rule:evenodd;fill:url(#SVGID_69_);}
	.st172{opacity:0.4;fill-rule:evenodd;clip-rule:evenodd;fill:url(#SVGID_70_);}
	.st173{opacity:0.4;fill-rule:evenodd;clip-rule:evenodd;fill:url(#SVGID_71_);}
	.st174{opacity:0.4;fill-rule:evenodd;clip-rule:evenodd;fill:url(#SVGID_72_);}
	.st175{opacity:0.4;fill-rule:evenodd;clip-rule:evenodd;fill:url(#SVGID_73_);}
	.st176{opacity:0.4;fill-rule:evenodd;clip-rule:evenodd;fill:url(#SVGID_74_);}
	.st177{opacity:0.4;fill-rule:evenodd;clip-rule:evenodd;fill:url(#SVGID_75_);}
	.st178{opacity:0.4;fill-rule:evenodd;clip-rule:evenodd;fill:url(#SVGID_76_);}
	.st179{opacity:0.4;fill-rule:evenodd;clip-rule:evenodd;fill:url(#SVGID_77_);}
	.st180{opacity:0.4;fill-rule:evenodd;clip-rule:evenodd;fill:url(#SVGID_78_);}
	.st181{opacity:0.4;fill-rule:evenodd;clip-rule:evenodd;fill:url(#SVGID_79_);}
	.st182{opacity:0.4;fill-rule:evenodd;clip-rule:evenodd;fill:url(#SVGID_80_);}
	.st183{opacity:0.4;fill-rule:evenodd;clip-rule:evenodd;fill:url(#SVGID_81_);}
	.st184{opacity:0.4;fill-rule:evenodd;clip-rule:evenodd;fill:url(#SVGID_82_);}
	.st185{opacity:0.4;fill-rule:evenodd;clip-rule:evenodd;fill:url(#SVGID_83_);}
	.st186{opacity:0.4;fill-rule:evenodd;clip-rule:evenodd;fill:url(#SVGID_84_);}
	.st187{opacity:0.4;fill-rule:evenodd;clip-rule:evenodd;fill:url(#SVGID_85_);}
	.st188{opacity:0.4;fill-rule:evenodd;clip-rule:evenodd;fill:url(#SVGID_86_);}
	.st189{opacity:0.4;fill-rule:evenodd;clip-rule:evenodd;fill:url(#SVGID_87_);}
	.st190{opacity:0.4;fill-rule:evenodd;clip-rule:evenodd;fill:url(#SVGID_88_);}
	.st191{opacity:0.4;fill-rule:evenodd;clip-rule:evenodd;fill:url(#SVGID_89_);}
	.st192{opacity:0.4;fill-rule:evenodd;clip-rule:evenodd;fill:url(#SVGID_90_);}
	.st193{opacity:0.4;fill-rule:evenodd;clip-rule:evenodd;fill:url(#SVGID_91_);}
	.st194{opacity:0.4;fill-rule:evenodd;clip-rule:evenodd;fill:url(#SVGID_92_);}
	.st195{opacity:0.4;fill-rule:evenodd;clip-rule:evenodd;fill:url(#SVGID_93_);}
	.st196{opacity:0.4;fill-rule:evenodd;clip-rule:evenodd;fill:url(#SVGID_94_);}
	.st197{opacity:0.4;fill-rule:evenodd;clip-rule:evenodd;fill:url(#SVGID_95_);}
	.st198{opacity:0.4;fill-rule:evenodd;clip-rule:evenodd;fill:url(#SVGID_96_);}
	.st199{opacity:0.4;fill-rule:evenodd;clip-rule:evenodd;fill:url(#SVGID_97_);}
	.st200{opacity:0.4;fill-rule:evenodd;clip-rule:evenodd;fill:url(#SVGID_98_);}
	.st201{opacity:0.4;fill-rule:evenodd;clip-rule:evenodd;fill:url(#SVGID_99_);}
	.st202{opacity:0.4;fill-rule:evenodd;clip-rule:evenodd;fill:url(#SVGID_100_);}
	.st203{opacity:0.4;fill-rule:evenodd;clip-rule:evenodd;fill:url(#SVGID_101_);}
	.st204{opacity:0.4;fill-rule:evenodd;clip-rule:evenodd;fill:url(#SVGID_102_);}
	.st205{opacity:0.4;fill-rule:evenodd;clip-rule:evenodd;fill:url(#SVGID_103_);}
	.st206{opacity:0.4;fill-rule:evenodd;clip-rule:evenodd;fill:url(#SVGID_104_);}
	.st207{opacity:0.4;fill-rule:evenodd;clip-rule:evenodd;fill:url(#SVGID_105_);}
	.st208{opacity:0.4;fill-rule:evenodd;clip-rule:evenodd;fill:url(#SVGID_106_);}
	.st209{opacity:0.4;fill-rule:evenodd;clip-rule:evenodd;fill:url(#SVGID_107_);}
	.st210{opacity:0.4;fill-rule:evenodd;clip-rule:evenodd;fill:url(#SVGID_108_);}
	.st211{opacity:0.4;fill-rule:evenodd;clip-rule:evenodd;fill:url(#SVGID_109_);}
	.st212{opacity:0.4;fill-rule:evenodd;clip-rule:evenodd;fill:url(#SVGID_110_);}
	.st213{opacity:0.4;fill-rule:evenodd;clip-rule:evenodd;fill:url(#SVGID_111_);}
	.st214{opacity:0.4;fill-rule:evenodd;clip-rule:evenodd;fill:url(#SVGID_112_);}
	.st215{opacity:0.4;fill-rule:evenodd;clip-rule:evenodd;fill:url(#SVGID_113_);}
	.st216{opacity:0.4;fill-rule:evenodd;clip-rule:evenodd;fill:url(#SVGID_114_);}
	.st217{opacity:0.4;fill-rule:evenodd;clip-rule:evenodd;fill:url(#SVGID_115_);}
	.st218{opacity:0.4;fill-rule:evenodd;clip-rule:evenodd;fill:url(#SVGID_116_);}
	.st219{opacity:0.4;fill-rule:evenodd;clip-rule:evenodd;fill:url(#SVGID_117_);}
	.st220{opacity:0.4;fill-rule:evenodd;clip-rule:evenodd;fill:url(#SVGID_118_);}
	.st221{opacity:0.4;fill-rule:evenodd;clip-rule:evenodd;fill:url(#SVGID_119_);}
	.st222{opacity:0.4;fill-rule:evenodd;clip-rule:evenodd;fill:url(#SVGID_120_);}
	.st223{opacity:0.4;fill-rule:evenodd;clip-rule:evenodd;fill:url(#SVGID_121_);}
	.st224{opacity:0.4;fill-rule:evenodd;clip-rule:evenodd;fill:url(#SVGID_122_);}
	.st225{opacity:0.4;fill-rule:evenodd;clip-rule:evenodd;fill:url(#SVGID_123_);}
	.st226{opacity:0.4;fill-rule:evenodd;clip-rule:evenodd;fill:url(#SVGID_124_);}
	.st227{opacity:0.4;fill-rule:evenodd;clip-rule:evenodd;fill:url(#SVGID_125_);}
	.st228{opacity:0.4;fill-rule:evenodd;clip-rule:evenodd;fill:url(#SVGID_126_);}
	.st229{opacity:0.4;fill-rule:evenodd;clip-rule:evenodd;fill:url(#SVGID_127_);}
	.st230{opacity:0.4;fill-rule:evenodd;clip-rule:evenodd;fill:url(#SVGID_128_);}
	.st231{opacity:0.4;fill-rule:evenodd;clip-rule:evenodd;fill:url(#SVGID_129_);}
	.st232{opacity:0.4;fill-rule:evenodd;clip-rule:evenodd;fill:url(#SVGID_130_);}
	.st233{opacity:0.4;fill-rule:evenodd;clip-rule:evenodd;fill:url(#SVGID_131_);}
	.st234{opacity:0.4;fill-rule:evenodd;clip-rule:evenodd;fill:url(#SVGID_132_);}
	.st235{opacity:0.4;fill-rule:evenodd;clip-rule:evenodd;fill:url(#SVGID_133_);}
	.st236{opacity:0.4;fill-rule:evenodd;clip-rule:evenodd;fill:url(#SVGID_134_);}
	.st237{opacity:0.4;fill-rule:evenodd;clip-rule:evenodd;fill:url(#SVGID_135_);}
	.st238{opacity:0.4;fill-rule:evenodd;clip-rule:evenodd;fill:url(#SVGID_136_);}
	.st239{opacity:0.4;fill-rule:evenodd;clip-rule:evenodd;fill:url(#SVGID_137_);}
	.st240{opacity:0.4;fill-rule:evenodd;clip-rule:evenodd;fill:url(#SVGID_138_);}
	.st241{opacity:0.4;fill-rule:evenodd;clip-rule:evenodd;fill:url(#SVGID_139_);}
	.st242{opacity:0.4;fill-rule:evenodd;clip-rule:evenodd;fill:url(#SVGID_140_);}
	.st243{opacity:0.4;fill-rule:evenodd;clip-rule:evenodd;fill:url(#SVGID_141_);}
	.st244{opacity:0.4;fill-rule:evenodd;clip-rule:evenodd;fill:url(#SVGID_142_);}
	.st245{opacity:0.4;fill-rule:evenodd;clip-rule:evenodd;fill:url(#SVGID_143_);}
	.st246{opacity:0.4;fill-rule:evenodd;clip-rule:evenodd;fill:url(#SVGID_144_);}
	.st247{opacity:0.4;fill-rule:evenodd;clip-rule:evenodd;fill:url(#SVGID_145_);}
	.st248{opacity:0.4;fill-rule:evenodd;clip-rule:evenodd;fill:url(#SVGID_146_);}
	.st249{opacity:0.2;}
	.st250{font-size:2.7416px;}
	.st251{font-size:1.8649px;}
	.st252{fill:url(#SVGID_147_);}
	.st253{font-size:3.1137px;}
	.st254{font-size:4.5245px;}
	.st255{fill:#040000;}
	.st256{font-size:1.8639px;}
	.st257{font-size:2.3753px;}
	.st258{fill:none;stroke:#231815;stroke-width:0.1;stroke-miterlimit:10;}
	.st259{font-size:2.5297px;}
	.st260{font-size:2.9969px;}
	.st261{font-size:1.1457px;}
	.st262{font-size:0.8647px;}
	.st263{font-size:1.4111px;}
	.st264{font-size:1.9933px;}
	.st265{fill:url(#SVGID_148_);}
	.st266{fill:none;stroke:#0071BA;stroke-width:0.2;stroke-miterlimit:10;stroke-dasharray:1.2044,1.2044;}
	.st267{font-size:4.7132px;glyph-orientation-vertical:0;writing-mode:tb;}
	.st268{font-size:2.6px;}
	.st269{font-size:4.8352px;}
	.st270{fill:#9C005D;}
	.st271{fill:none;stroke:#0071BA;stroke-width:0.2;stroke-miterlimit:10;}
	.st272{fill:none;stroke:#0071BA;stroke-width:0.2;stroke-miterlimit:10;stroke-dasharray:1.202,1.202;}
	.st273{font-size:2.2864px;}
	.st274{font-size:1.4054px;}
	.st275{font-size:1.0606px;}
	.st276{font-size:1.731px;}
	.st277{font-size:2.4452px;}
	.st278{letter-spacing:-2;}
	.st279{fill:#FFFFFF;stroke:#FFFFFF;stroke-width:0.8;stroke-linejoin:round;stroke-miterlimit:10;}
	.st280{font-size:6.2437px;}
</style>
  </defs>
  <g transform="matrix(1, 0, 0, 1, 1340.994873, -109.115265)">
    <g>
      <linearGradient id="SVGID_6_" gradientUnits="userSpaceOnUse" x1="39.3716" y1="562.6317" x2="88.8938" y2="562.6317">
        <stop offset="0" style="stop-color:#FF0000"/>
        <stop offset="1" style="stop-color:#0000FF"/>
      </linearGradient>
      <path class="st68" d="M84.21,567.54H44.05c-2.58,0-4.68-2.09-4.68-4.68v-0.47c0-2.58,2.09-4.68,4.68-4.68h40.16 c2.58,0,4.68,2.09,4.68,4.68v0.47C88.89,565.45,86.8,567.54,84.21,567.54z"/>
      <path class="st36" d="M84.05,566.67H44.22c-2.23,0-4.03-1.81-4.03-4.03l0,0c0-2.23,1.81-4.03,4.03-4.03h39.83 c2.23,0,4.03,1.81,4.03,4.03l0,0C88.08,564.86,86.27,566.67,84.05,566.67z"/>
    </g>
    <g>
      <path class="st1" d="M54.85,562.38c-0.23,0.24-0.48,0.41-0.86,0.56c0.33-0.05,0.62-0.15,0.86-0.28c0.11-0.06,0.21-0.14,0.27-0.2 l0.38,0.27c-0.21,0.15-0.41,0.27-0.64,0.37c-0.26,0.12-0.48,0.18-0.87,0.25c-0.05-0.15-0.09-0.23-0.19-0.35 c-0.08,0.03-0.15,0.05-0.28,0.09c-0.07-0.19-0.13-0.29-0.25-0.45c0.37-0.07,0.55-0.13,0.77-0.25h-0.2c-0.16,0-0.33,0.01-0.47,0.02 v-0.49c0.12,0.01,0.26,0.02,0.46,0.02h0.7c0.03-0.06,0.04-0.07,0.06-0.14c-0.37,0.01-0.37,0.01-0.73,0.01c-0.06,0-0.1,0-0.19,0.01 l-0.05-0.47c0.12,0.01,0.27,0.02,0.52,0.02c0.13-0.16,0.23-0.31,0.3-0.44l0.6,0.11c-0.02,0.03-0.02,0.03-0.08,0.1 c-0.07,0.09-0.12,0.16-0.19,0.24c0.24,0,0.51-0.01,0.73-0.02c-0.07-0.06-0.1-0.09-0.19-0.16l0.43-0.21 c0.28,0.22,0.5,0.42,0.77,0.72l-0.44,0.24h0.16c0.21,0,0.37-0.01,0.47-0.02v0.49c-0.12-0.01-0.27-0.02-0.46-0.02h-0.32 c0.2,0.15,0.5,0.25,0.86,0.29c-0.11,0.18-0.16,0.29-0.21,0.52c-0.56-0.15-1-0.42-1.32-0.81H54.85z M55.96,563.08 c-0.36,0.27-0.5,0.36-0.8,0.49c-0.34,0.15-0.67,0.23-1.17,0.3c-0.06-0.18-0.11-0.27-0.22-0.4c0.52-0.04,0.97-0.16,1.37-0.37 c0.2-0.1,0.36-0.21,0.42-0.28L55.96,563.08z M56.49,563.42c-0.43,0.35-0.54,0.43-0.84,0.58c-0.45,0.23-0.94,0.36-1.61,0.43 c-0.07-0.2-0.12-0.3-0.25-0.47c0.77-0.04,1.35-0.2,1.87-0.52c0.15-0.09,0.3-0.21,0.38-0.3L56.49,563.42z M56.05,561.93 c-0.12-0.15-0.12-0.15-0.17-0.21c-0.19,0.02-0.4,0.03-0.65,0.04c-0.03,0.08-0.05,0.12-0.07,0.16H56.05z"/>
      <path class="st1" d="M58.34,561.55c0.2,0,0.31,0,0.43-0.01c-0.01,0.12-0.01,0.17-0.01,0.37c-0.02,2.19-0.08,2.42-0.66,2.42 c-0.08,0-0.17,0-0.3-0.01c-0.01-0.21-0.03-0.33-0.09-0.54c0.12,0.02,0.22,0.04,0.28,0.04c0.11,0,0.13-0.03,0.17-0.26 c0.05-0.35,0.07-0.68,0.07-1.47h-0.19c-0.04,0.61-0.09,0.95-0.21,1.36c-0.11,0.36-0.24,0.63-0.48,0.97 c-0.13-0.24-0.24-0.38-0.41-0.54c0.17-0.23,0.31-0.48,0.39-0.73c0.09-0.27,0.14-0.57,0.17-1.06h-0.12c-0.16,0-0.24,0-0.35,0.02 v-0.56c0.1,0.01,0.2,0.02,0.4,0.02h0.09c0-0.1,0-0.14,0-0.2c0-0.18-0.01-0.28-0.02-0.38h0.59c-0.01,0.1-0.02,0.15-0.02,0.37 c0,0.09,0,0.12-0.01,0.21H58.34z M59.43,564.33h-0.56c0.01-0.11,0.02-0.25,0.02-0.42v-2.25c0-0.17,0-0.25-0.02-0.38 c0.11,0.01,0.19,0.01,0.34,0.01h0.77c0.16,0,0.25,0,0.34-0.01c-0.01,0.12-0.02,0.22-0.02,0.38v2.21c0,0.21,0,0.34,0.02,0.45h-0.57 v-0.26h-0.33V564.33z M59.43,563.55h0.33v-1.74h-0.33V563.55z"/>
      <path class="st1" d="M63.98,561.62c-0.02,0.03-0.02,0.03-0.07,0.09c-0.06,0.08-0.16,0.19-0.26,0.29c0.15,0.07,0.25,0.12,0.43,0.18 c-0.11,0.2-0.16,0.31-0.23,0.53c-0.15-0.07-0.21-0.09-0.31-0.14c0,0.05,0,0.08,0,0.16v0.53c0,0.13,0,0.2,0.01,0.28 c-0.02,0-0.1-0.01-0.24-0.01h-0.49l0.41,0.1c-0.02,0.05-0.03,0.05-0.05,0.09c-0.01,0.03-0.03,0.05-0.04,0.08 c0,0.01-0.01,0.01-0.01,0.03h0.5c0.18,0,0.25,0,0.36-0.02v0.54c-0.11-0.01-0.2-0.02-0.4-0.02h-2.54c-0.2,0-0.28,0-0.4,0.02v-0.54 c0.11,0.01,0.17,0.02,0.36,0.02h0.48c-0.03-0.07-0.05-0.12-0.11-0.21l0.41-0.08h-0.46c-0.2,0-0.2,0-0.24,0.01 c0.01-0.1,0.01-0.16,0.01-0.28v-0.52c0-0.06,0-0.09,0-0.14c-0.1,0.05-0.15,0.07-0.29,0.13c-0.06-0.19-0.13-0.33-0.24-0.5 c0.17-0.05,0.33-0.12,0.53-0.23c-0.18-0.2-0.27-0.28-0.46-0.42l0.4-0.32c0.11,0.08,0.14,0.11,0.22,0.18V561 c0.11,0.01,0.16,0.02,0.34,0.02h0.68c0.17,0,0.22,0,0.3-0.01c0.05,0.15,0.07,0.19,0.19,0.32c0.12-0.13,0.18-0.22,0.24-0.32 l0.44,0.25c-0.02,0.03-0.03,0.04-0.07,0.09c-0.08,0.1-0.16,0.19-0.26,0.3c0.05,0.04,0.07,0.05,0.13,0.1 c0.13-0.12,0.23-0.25,0.3-0.37L63.98,561.62z M61.72,562.19c-0.19,0.14-0.3,0.21-0.45,0.3c0.04,0,0.05,0,0.09,0h1.91 c0.06,0,0.08,0,0.13,0c-0.14-0.08-0.26-0.16-0.45-0.3v0.18c-0.06-0.01-0.09-0.01-0.2-0.01H61.9c-0.06,0-0.12,0-0.17,0.01V562.19z M61.46,561.47c-0.05,0-0.09,0-0.15,0.01c0.11,0.1,0.15,0.14,0.23,0.22c0.1-0.08,0.15-0.13,0.23-0.23H61.46z M61.63,563.09h1.37 v-0.17h-1.37V563.09z M62.57,563.82c0.03-0.07,0.11-0.24,0.12-0.3h-0.77c0.04,0.08,0.09,0.2,0.12,0.3H62.57z M62.64,561.94 c-0.13-0.12-0.19-0.18-0.31-0.35c-0.13,0.16-0.18,0.22-0.31,0.35H62.64z"/>
      <path class="st1" d="M67.08,561.06c0.14,0,0.25,0,0.32-0.01c-0.01,0.07-0.01,0.1-0.02,0.28c-0.01,0.23-0.02,0.6-0.03,0.79 c0.16,0,0.22,0,0.32-0.02v0.49c-0.11-0.01-0.24-0.02-0.36-0.02h-0.38c0.05,0.19,0.06,0.24,0.11,0.35c0.14-0.12,0.21-0.2,0.3-0.35 l0.36,0.31c-0.14,0.16-0.28,0.3-0.43,0.42c0.13,0.17,0.25,0.29,0.47,0.43c-0.12,0.17-0.17,0.26-0.29,0.52 c-0.28-0.24-0.42-0.44-0.56-0.78c0,0.06,0.01,0.16,0.02,0.29v0.23c0,0.29-0.12,0.39-0.48,0.39c-0.07,0-0.15,0-0.3-0.01 c-0.02-0.2-0.04-0.3-0.09-0.43c-0.1,0.08-0.12,0.09-0.24,0.17l-0.16-0.37l0,0.36c-0.28,0.08-0.63,0.15-1.17,0.23 c-0.01,0-0.05,0.01-0.12,0.03l-0.07-0.55c0.15,0,0.25-0.01,0.52-0.04v-0.92h-0.13c-0.16,0-0.28,0.01-0.37,0.02v-0.51 c0.08,0.01,0.21,0.02,0.37,0.02h0.13v-0.15h-0.03c-0.07,0-0.12,0-0.19,0.01v-0.18c-0.07,0.07-0.1,0.09-0.19,0.16 c-0.06-0.24-0.1-0.33-0.2-0.52c0.29-0.19,0.49-0.41,0.6-0.7h0.54c0.09,0.18,0.2,0.3,0.44,0.49v-0.45 c0.11,0.01,0.21,0.02,0.38,0.02H67.08z M64.41,563.72c-0.03-0.24-0.06-0.39-0.15-0.67l0.35-0.12c0.08,0.22,0.11,0.37,0.16,0.67 L64.41,563.72z M65.33,561.8c-0.11-0.12-0.16-0.19-0.25-0.34c-0.08,0.14-0.13,0.21-0.24,0.34H65.33z M66.82,562.11 c0-0.09,0-0.09,0.01-0.12H66.2c-0.17,0-0.26,0-0.35,0.01v-0.41c0.09,0.01,0.16,0.02,0.35,0.02h0.65l0-0.11h-0.74 c-0.13,0-0.26,0-0.33,0.01l0.05,0.04c-0.15,0.22-0.19,0.29-0.27,0.44v0.25c-0.07-0.01-0.09-0.01-0.2-0.01h-0.08v0.15h0.13 c0.09,0,0.16,0,0.23-0.01v-0.27c0.11,0.01,0.2,0.02,0.36,0.02H66.82z M66,562.56c-0.15,0-0.24,0-0.34,0.01v0.28 c-0.08-0.01-0.13-0.01-0.25-0.01h-0.13v0.85c0.13-0.03,0.17-0.03,0.32-0.07c0.22-0.11,0.4-0.21,0.62-0.38l0.16,0.37v-1.05H66z M65.3,563.48c0.07-0.21,0.1-0.33,0.13-0.55l0.32,0.11c-0.05,0.21-0.09,0.36-0.17,0.55L65.3,563.48z M66.05,562.58 c0.15,0.17,0.24,0.29,0.33,0.47l-0.38,0.27c-0.13-0.27-0.2-0.37-0.32-0.52L66.05,562.58z M66.4,563.62 c-0.11,0.11-0.15,0.15-0.29,0.26c0.09,0.01,0.12,0.01,0.17,0.01c0.1,0,0.13-0.02,0.13-0.09V563.62z"/>
      <path class="st1" d="M67.96,561.42c0.09,0.01,0.13,0.01,0.22,0.01c0.1,0,1.08-0.03,1.41-0.04c0-0.23-0.01-0.28-0.03-0.39h0.64 c-0.01,0.13-0.02,0.17-0.02,0.37c0.6,0,0.87-0.01,1.02-0.03l0,0.6c-0.16-0.01-0.24-0.02-0.65-0.02c-0.19,0-0.22,0-0.36,0v0.46 c0,0.02,0,0.04,0,0.08c0.11,0.19,0.15,0.36,0.15,0.61c0,0.41-0.21,0.76-0.6,1.01c-0.18,0.11-0.39,0.19-0.73,0.29 c-0.1-0.26-0.18-0.39-0.35-0.57c0.37-0.05,0.57-0.11,0.75-0.22c0.13-0.08,0.21-0.16,0.27-0.29c-0.15,0.13-0.28,0.17-0.49,0.17 c-0.42,0-0.72-0.28-0.72-0.67c0-0.41,0.34-0.7,0.84-0.7c0.12,0,0.2,0.01,0.28,0.04c0-0.04,0-0.04,0-0.11c0-0.05,0-0.05,0-0.09 c-0.75,0.02-1.35,0.05-1.63,0.09L67.96,561.42z M69.09,562.78c0,0.11,0.1,0.2,0.24,0.2c0.16,0,0.28-0.09,0.28-0.22 c0-0.11-0.09-0.19-0.24-0.19C69.21,562.57,69.09,562.66,69.09,562.78z"/>
      <path class="st1" d="M72.05,561.17c0.15,0.02,0.29,0.03,0.52,0.03c0.32,0,0.73-0.01,1.09-0.04c0.16-0.01,0.21-0.02,0.28-0.05 l0.3,0.44c-0.09,0.05-0.09,0.05-0.59,0.48c-0.19,0.16-0.26,0.22-0.5,0.4c0.2-0.05,0.31-0.07,0.5-0.07c0.34,0,0.59,0.08,0.78,0.25 c0.17,0.16,0.27,0.37,0.27,0.63c0,0.37-0.17,0.66-0.5,0.85c-0.25,0.15-0.6,0.23-0.96,0.23c-0.61,0-0.99-0.24-0.99-0.65 c0-0.34,0.3-0.58,0.72-0.58c0.26,0,0.5,0.1,0.65,0.28c0.07,0.08,0.11,0.15,0.17,0.29c0.2-0.09,0.29-0.21,0.29-0.4 c0-0.25-0.25-0.41-0.65-0.41c-0.39,0-0.79,0.12-1.12,0.33c-0.11,0.07-0.23,0.16-0.35,0.27l-0.34-0.55c0.33-0.16,1.1-0.75,1.55-1.2 c-0.19,0.02-0.34,0.03-0.85,0.05c-0.1,0-0.17,0.01-0.24,0.02L72.05,561.17z M72.96,563.54c-0.08,0-0.14,0.05-0.14,0.12 c0,0.1,0.12,0.16,0.31,0.16c0.04,0,0.05,0,0.12-0.01C73.2,563.63,73.1,563.54,72.96,563.54z"/>
    </g>
  </g>
  <rect x="1428.713" y="-107.507" class="st86" width="126.9" height="1796.3"/>
</svg>