<?xml version="1.0" encoding="utf-8"?>
<svg viewBox="1382.969 446.754 40.015 15.405" width="40.015" height="15.405" style="enable-background:new 0 0 128 2310.2;" xmlns="http://www.w3.org/2000/svg">
  <defs>
    <style type="text/css">
	.st0{opacity:0.58;fill:#FFFF00;}
	.st1{fill:#FFFFFF;}
	.st2{font-family:'HiraKakuStdN-W8';}
	.st3{font-size:4.4695px;}
	.st4{letter-spacing:1;}
	.st5{fill:#1B1464;}
	.st6{fill:#FFFFFF;stroke:#FFFFFF;stroke-width:1.5;stroke-linejoin:round;stroke-miterlimit:10;}
	.st7{font-size:6.2972px;}
	.st8{fill:#EB1C24;}
	.st9{fill:#FF0000;}
	.st10{font-size:2.8202px;}
	.st11{font-size:4.5217px;}
	.st12{font-size:7.7297px;}
	.st13{fill:#F5911E;}
	.st14{fill:#0000FF;}
	.st15{font-size:3.69px;}
	.st16{fill:none;stroke:#0000FF;stroke-width:0.6;stroke-miterlimit:10;}
	.st17{font-family:'KozGoPr6N-Medium';}
	.st18{font-size:2.4999px;}
	.st19{letter-spacing:-1;}
	.st20{fill:#BF272D;}
	.st21{fill:#FFFFFF;stroke:#FFFFFF;stroke-width:0.7;stroke-linejoin:round;stroke-miterlimit:10;}
	.st22{fill:#C30D23;}
	.st23{fill:#FFFFFF;stroke:#FFFFFF;stroke-width:0.2;stroke-miterlimit:10;}
	.st24{fill:#C30D23;stroke:#C30D23;stroke-width:0.2;stroke-miterlimit:10;}
	.st25{fill:#171C61;}
	.st26{fill:#171C61;stroke:#171C61;stroke-width:0.2;stroke-linejoin:round;stroke-miterlimit:10;}
	.st27{fill:#FFFFFF;stroke:#FFFFFF;stroke-width:1.1;stroke-linejoin:round;stroke-miterlimit:10;}
	.st28{fill:#171C61;stroke:#171C61;stroke-width:0.3;stroke-linejoin:round;stroke-miterlimit:10;}
	.st29{fill:#C30D23;stroke:#C30D23;stroke-width:0.3;stroke-linejoin:round;stroke-miterlimit:10;}
	.st30{font-size:4.03px;}
	.st31{fill:none;stroke:#C30D23;stroke-width:0.4;stroke-miterlimit:10;}
	.st32{fill:none;stroke:#171C61;stroke-width:0.4;stroke-miterlimit:10;}
	.st33{font-size:3.2446px;}
	.st34{font-size:2.2935px;}
	.st35{fill:url(#SVGID_3_);}
	.st36{fill:none;stroke:#FFFFFF;stroke-width:0.6;stroke-miterlimit:10;}
	.st37{fill:#FFB882;}
	.st38{fill:#FFD9D9;}
	.st39{fill:#6A9CE5;}
	.st40{fill:#4F80C9;}
	.st41{fill:#4C4242;}
	.st42{fill:#352D2D;}
	.st43{fill:#EDB2B2;}
	.st44{fill:#5F99DD;}
	.st45{fill:#E2ACAC;}
	.st46{fill:#EFC7C7;}
	.st47{fill:#917A7A;}
	.st48{fill:#F28181;}
	.st49{fill:#F4592F;}
	.st50{fill:#DD3F1B;}
	.st51{opacity:0.6;fill:#843131;}
	.st52{fill:#EA7B59;}
	.st53{fill:#472824;}
	.st54{fill:#51352E;}
	.st55{fill:#9B4848;}
	.st56{fill:#FF9566;}
	.st57{fill:#FFFCEE;}
	.st58{fill:none;stroke:#333333;stroke-width:0.1;stroke-miterlimit:10;}
	.st59{font-size:2.4px;}
	.st60{font-size:3.434px;}
	.st61{fill:none;stroke:#0000FF;stroke-width:0.7;stroke-miterlimit:10;}
	.st62{fill:none;stroke:#EB1C24;stroke-width:0.6;stroke-miterlimit:10;}
	.st63{font-size:5.3521px;}
	.st64{font-size:2.7348px;}
	.st65{font-family:'MidashiGoPr6N-MB31-90ms-RKSJ-H';}
	.st66{font-size:2.1px;}
	.st67{fill:none;stroke:#B1B1B1;stroke-width:0.1;stroke-miterlimit:10;}
	.st68{fill:url(#SVGID_6_);}
	.st69{font-size:3.2588px;}
	.st70{fill:#FFFFFF;stroke:#FFFFFF;stroke-width:0.9;stroke-linejoin:round;stroke-miterlimit:10;}
	.st71{font-size:4.1159px;}
	.st72{fill:url(#SVGID_7_);}
	.st73{font-size:6.3814px;}
	.st74{font-size:4.4px;}
	.st75{font-size:4.5972px;}
	.st76{font-size:6.0229px;}
	.st77{fill:none;stroke:#FFFFFF;stroke-linejoin:round;stroke-miterlimit:10;}
	.st78{fill:#FFFFFF;stroke:#FFFFFF;stroke-width:0.05;stroke-miterlimit:10;}
	.st79{font-size:3.815px;}
	.st80{font-size:3.2061px;}
	.st81{font-family:'KozGoPr6N-Regular-90ms-RKSJ-H';}
	.st82{font-size:1.321px;}
	.st83{fill:url(#SVGID_8_);}
	.st84{fill:url(#SVGID_9_);}
	.st85{font-size:3.9px;}
	.st86{fill:none;}
	.st87{fill:#4C4C4C;}
	.st88{font-size:1.5992px;}
	.st89{fill:none;stroke:#000000;stroke-width:0.1;stroke-miterlimit:10;}
	.st90{font-size:1.9158px;}
	.st91{font-size:5.8041px;}
	.st92{fill:#0071BA;}
	.st93{font-size:4.003px;}
	.st94{fill:#979797;}
	.st95{fill:#009045;}
	.st96{opacity:0.7;fill:url(#SVGID_10_);}
	.st97{fill:#121212;}
	.st98{fill:url(#SVGID_11_);}
	.st99{fill:url(#SVGID_12_);}
	.st100{fill:#1A171B;}
	.st101{fill:url(#SVGID_13_);}
	.st102{fill:url(#SVGID_14_);}
	.st103{opacity:0.2;fill:#E6E9F0;}
	.st104{opacity:0.3;fill:#DEEDEF;}
	.st105{opacity:0.25;fill:#FFFFFF;}
	.st106{opacity:0.15;fill:#FFFFFF;}
	.st107{fill-rule:evenodd;clip-rule:evenodd;fill:url(#SVGID_15_);}
	.st108{fill-rule:evenodd;clip-rule:evenodd;fill:url(#SVGID_16_);}
	.st109{fill-rule:evenodd;clip-rule:evenodd;fill:url(#SVGID_17_);}
	.st110{filter:url(#Adobe_OpacityMaskFilter);}
	.st111{filter:url(#Adobe_OpacityMaskFilter_1_);}
	.st112{mask:url(#SVGID_18_);fill-rule:evenodd;clip-rule:evenodd;fill:url(#SVGID_19_);}
	.st113{fill-rule:evenodd;clip-rule:evenodd;fill:url(#SVGID_20_);}
	.st114{fill-rule:evenodd;clip-rule:evenodd;fill:#141414;}
	.st115{fill:#BFBFBF;}
	.st116{fill:url(#SVGID_21_);}
	.st117{fill:url(#SVGID_22_);}
	.st118{fill:url(#SVGID_23_);}
	.st119{fill:url(#SVGID_24_);}
	.st120{fill:url(#SVGID_25_);}
	.st121{fill:url(#SVGID_26_);}
	.st122{fill:url(#SVGID_27_);}
	.st123{fill:url(#SVGID_28_);}
	.st124{fill:url(#SVGID_29_);}
	.st125{fill:#353332;}
	.st126{fill:url(#SVGID_30_);}
	.st127{fill:url(#SVGID_31_);}
	.st128{fill:url(#SVGID_32_);}
	.st129{fill:url(#SVGID_33_);}
	.st130{fill:url(#SVGID_34_);}
	.st131{fill:url(#SVGID_35_);}
	.st132{fill:url(#SVGID_36_);}
	.st133{fill:url(#SVGID_37_);}
	.st134{fill:url(#SVGID_38_);}
	.st135{filter:url(#Adobe_OpacityMaskFilter_2_);}
	.st136{filter:url(#Adobe_OpacityMaskFilter_3_);}
	.st137{mask:url(#SVGID_39_);fill:url(#SVGID_40_);}
	.st138{fill:url(#SVGID_41_);}
	.st139{fill:url(#SVGID_42_);}
	.st140{fill:url(#SVGID_43_);}
	.st141{fill:#515354;}
	.st142{fill:url(#SVGID_44_);}
	.st143{filter:url(#Adobe_OpacityMaskFilter_4_);}
	.st144{filter:url(#Adobe_OpacityMaskFilter_5_);}
	.st145{mask:url(#SVGID_45_);fill:url(#SVGID_46_);}
	.st146{fill:url(#SVGID_47_);}
	.st147{fill:url(#SVGID_48_);}
	.st148{fill:url(#SVGID_49_);}
	.st149{fill:url(#SVGID_50_);}
	.st150{fill:url(#SVGID_51_);}
	.st151{fill:url(#SVGID_52_);}
	.st152{fill:url(#SVGID_53_);}
	.st153{fill:url(#SVGID_54_);}
	.st154{fill:url(#SVGID_55_);}
	.st155{fill:url(#SVGID_56_);}
	.st156{fill:url(#SVGID_57_);}
	.st157{fill:url(#SVGID_58_);}
	.st158{fill:url(#SVGID_59_);}
	.st159{fill:url(#SVGID_60_);}
	.st160{fill:url(#SVGID_61_);}
	.st161{fill:url(#SVGID_62_);}
	.st162{fill:url(#SVGID_63_);}
	.st163{fill:url(#SVGID_64_);}
	.st164{fill:#6B6D6E;}
	.st165{fill-rule:evenodd;clip-rule:evenodd;fill:#29282C;}
	.st166{fill-rule:evenodd;clip-rule:evenodd;}
	.st167{opacity:0.4;fill-rule:evenodd;clip-rule:evenodd;fill:url(#SVGID_65_);}
	.st168{opacity:0.4;fill-rule:evenodd;clip-rule:evenodd;fill:url(#SVGID_66_);}
	.st169{opacity:0.4;fill-rule:evenodd;clip-rule:evenodd;fill:url(#SVGID_67_);}
	.st170{opacity:0.4;fill-rule:evenodd;clip-rule:evenodd;fill:url(#SVGID_68_);}
	.st171{opacity:0.4;fill-rule:evenodd;clip-rule:evenodd;fill:url(#SVGID_69_);}
	.st172{opacity:0.4;fill-rule:evenodd;clip-rule:evenodd;fill:url(#SVGID_70_);}
	.st173{opacity:0.4;fill-rule:evenodd;clip-rule:evenodd;fill:url(#SVGID_71_);}
	.st174{opacity:0.4;fill-rule:evenodd;clip-rule:evenodd;fill:url(#SVGID_72_);}
	.st175{opacity:0.4;fill-rule:evenodd;clip-rule:evenodd;fill:url(#SVGID_73_);}
	.st176{opacity:0.4;fill-rule:evenodd;clip-rule:evenodd;fill:url(#SVGID_74_);}
	.st177{opacity:0.4;fill-rule:evenodd;clip-rule:evenodd;fill:url(#SVGID_75_);}
	.st178{opacity:0.4;fill-rule:evenodd;clip-rule:evenodd;fill:url(#SVGID_76_);}
	.st179{opacity:0.4;fill-rule:evenodd;clip-rule:evenodd;fill:url(#SVGID_77_);}
	.st180{opacity:0.4;fill-rule:evenodd;clip-rule:evenodd;fill:url(#SVGID_78_);}
	.st181{opacity:0.4;fill-rule:evenodd;clip-rule:evenodd;fill:url(#SVGID_79_);}
	.st182{opacity:0.4;fill-rule:evenodd;clip-rule:evenodd;fill:url(#SVGID_80_);}
	.st183{opacity:0.4;fill-rule:evenodd;clip-rule:evenodd;fill:url(#SVGID_81_);}
	.st184{opacity:0.4;fill-rule:evenodd;clip-rule:evenodd;fill:url(#SVGID_82_);}
	.st185{opacity:0.4;fill-rule:evenodd;clip-rule:evenodd;fill:url(#SVGID_83_);}
	.st186{opacity:0.4;fill-rule:evenodd;clip-rule:evenodd;fill:url(#SVGID_84_);}
	.st187{opacity:0.4;fill-rule:evenodd;clip-rule:evenodd;fill:url(#SVGID_85_);}
	.st188{opacity:0.4;fill-rule:evenodd;clip-rule:evenodd;fill:url(#SVGID_86_);}
	.st189{opacity:0.4;fill-rule:evenodd;clip-rule:evenodd;fill:url(#SVGID_87_);}
	.st190{opacity:0.4;fill-rule:evenodd;clip-rule:evenodd;fill:url(#SVGID_88_);}
	.st191{opacity:0.4;fill-rule:evenodd;clip-rule:evenodd;fill:url(#SVGID_89_);}
	.st192{opacity:0.4;fill-rule:evenodd;clip-rule:evenodd;fill:url(#SVGID_90_);}
	.st193{opacity:0.4;fill-rule:evenodd;clip-rule:evenodd;fill:url(#SVGID_91_);}
	.st194{opacity:0.4;fill-rule:evenodd;clip-rule:evenodd;fill:url(#SVGID_92_);}
	.st195{opacity:0.4;fill-rule:evenodd;clip-rule:evenodd;fill:url(#SVGID_93_);}
	.st196{opacity:0.4;fill-rule:evenodd;clip-rule:evenodd;fill:url(#SVGID_94_);}
	.st197{opacity:0.4;fill-rule:evenodd;clip-rule:evenodd;fill:url(#SVGID_95_);}
	.st198{opacity:0.4;fill-rule:evenodd;clip-rule:evenodd;fill:url(#SVGID_96_);}
	.st199{opacity:0.4;fill-rule:evenodd;clip-rule:evenodd;fill:url(#SVGID_97_);}
	.st200{opacity:0.4;fill-rule:evenodd;clip-rule:evenodd;fill:url(#SVGID_98_);}
	.st201{opacity:0.4;fill-rule:evenodd;clip-rule:evenodd;fill:url(#SVGID_99_);}
	.st202{opacity:0.4;fill-rule:evenodd;clip-rule:evenodd;fill:url(#SVGID_100_);}
	.st203{opacity:0.4;fill-rule:evenodd;clip-rule:evenodd;fill:url(#SVGID_101_);}
	.st204{opacity:0.4;fill-rule:evenodd;clip-rule:evenodd;fill:url(#SVGID_102_);}
	.st205{opacity:0.4;fill-rule:evenodd;clip-rule:evenodd;fill:url(#SVGID_103_);}
	.st206{opacity:0.4;fill-rule:evenodd;clip-rule:evenodd;fill:url(#SVGID_104_);}
	.st207{opacity:0.4;fill-rule:evenodd;clip-rule:evenodd;fill:url(#SVGID_105_);}
	.st208{opacity:0.4;fill-rule:evenodd;clip-rule:evenodd;fill:url(#SVGID_106_);}
	.st209{opacity:0.4;fill-rule:evenodd;clip-rule:evenodd;fill:url(#SVGID_107_);}
	.st210{opacity:0.4;fill-rule:evenodd;clip-rule:evenodd;fill:url(#SVGID_108_);}
	.st211{opacity:0.4;fill-rule:evenodd;clip-rule:evenodd;fill:url(#SVGID_109_);}
	.st212{opacity:0.4;fill-rule:evenodd;clip-rule:evenodd;fill:url(#SVGID_110_);}
	.st213{opacity:0.4;fill-rule:evenodd;clip-rule:evenodd;fill:url(#SVGID_111_);}
	.st214{opacity:0.4;fill-rule:evenodd;clip-rule:evenodd;fill:url(#SVGID_112_);}
	.st215{opacity:0.4;fill-rule:evenodd;clip-rule:evenodd;fill:url(#SVGID_113_);}
	.st216{opacity:0.4;fill-rule:evenodd;clip-rule:evenodd;fill:url(#SVGID_114_);}
	.st217{opacity:0.4;fill-rule:evenodd;clip-rule:evenodd;fill:url(#SVGID_115_);}
	.st218{opacity:0.4;fill-rule:evenodd;clip-rule:evenodd;fill:url(#SVGID_116_);}
	.st219{opacity:0.4;fill-rule:evenodd;clip-rule:evenodd;fill:url(#SVGID_117_);}
	.st220{opacity:0.4;fill-rule:evenodd;clip-rule:evenodd;fill:url(#SVGID_118_);}
	.st221{opacity:0.4;fill-rule:evenodd;clip-rule:evenodd;fill:url(#SVGID_119_);}
	.st222{opacity:0.4;fill-rule:evenodd;clip-rule:evenodd;fill:url(#SVGID_120_);}
	.st223{opacity:0.4;fill-rule:evenodd;clip-rule:evenodd;fill:url(#SVGID_121_);}
	.st224{opacity:0.4;fill-rule:evenodd;clip-rule:evenodd;fill:url(#SVGID_122_);}
	.st225{opacity:0.4;fill-rule:evenodd;clip-rule:evenodd;fill:url(#SVGID_123_);}
	.st226{opacity:0.4;fill-rule:evenodd;clip-rule:evenodd;fill:url(#SVGID_124_);}
	.st227{opacity:0.4;fill-rule:evenodd;clip-rule:evenodd;fill:url(#SVGID_125_);}
	.st228{opacity:0.4;fill-rule:evenodd;clip-rule:evenodd;fill:url(#SVGID_126_);}
	.st229{opacity:0.4;fill-rule:evenodd;clip-rule:evenodd;fill:url(#SVGID_127_);}
	.st230{opacity:0.4;fill-rule:evenodd;clip-rule:evenodd;fill:url(#SVGID_128_);}
	.st231{opacity:0.4;fill-rule:evenodd;clip-rule:evenodd;fill:url(#SVGID_129_);}
	.st232{opacity:0.4;fill-rule:evenodd;clip-rule:evenodd;fill:url(#SVGID_130_);}
	.st233{opacity:0.4;fill-rule:evenodd;clip-rule:evenodd;fill:url(#SVGID_131_);}
	.st234{opacity:0.4;fill-rule:evenodd;clip-rule:evenodd;fill:url(#SVGID_132_);}
	.st235{opacity:0.4;fill-rule:evenodd;clip-rule:evenodd;fill:url(#SVGID_133_);}
	.st236{opacity:0.4;fill-rule:evenodd;clip-rule:evenodd;fill:url(#SVGID_134_);}
	.st237{opacity:0.4;fill-rule:evenodd;clip-rule:evenodd;fill:url(#SVGID_135_);}
	.st238{opacity:0.4;fill-rule:evenodd;clip-rule:evenodd;fill:url(#SVGID_136_);}
	.st239{opacity:0.4;fill-rule:evenodd;clip-rule:evenodd;fill:url(#SVGID_137_);}
	.st240{opacity:0.4;fill-rule:evenodd;clip-rule:evenodd;fill:url(#SVGID_138_);}
	.st241{opacity:0.4;fill-rule:evenodd;clip-rule:evenodd;fill:url(#SVGID_139_);}
	.st242{opacity:0.4;fill-rule:evenodd;clip-rule:evenodd;fill:url(#SVGID_140_);}
	.st243{opacity:0.4;fill-rule:evenodd;clip-rule:evenodd;fill:url(#SVGID_141_);}
	.st244{opacity:0.4;fill-rule:evenodd;clip-rule:evenodd;fill:url(#SVGID_142_);}
	.st245{opacity:0.4;fill-rule:evenodd;clip-rule:evenodd;fill:url(#SVGID_143_);}
	.st246{opacity:0.4;fill-rule:evenodd;clip-rule:evenodd;fill:url(#SVGID_144_);}
	.st247{opacity:0.4;fill-rule:evenodd;clip-rule:evenodd;fill:url(#SVGID_145_);}
	.st248{opacity:0.4;fill-rule:evenodd;clip-rule:evenodd;fill:url(#SVGID_146_);}
	.st249{opacity:0.2;}
	.st250{font-size:2.7416px;}
	.st251{font-size:1.8649px;}
	.st252{fill:url(#SVGID_147_);}
	.st253{font-size:3.1137px;}
	.st254{font-size:4.5245px;}
	.st255{fill:#040000;}
	.st256{font-size:1.8639px;}
	.st257{font-size:2.3753px;}
	.st258{fill:none;stroke:#231815;stroke-width:0.1;stroke-miterlimit:10;}
	.st259{font-size:2.5297px;}
	.st260{font-size:2.9969px;}
	.st261{font-size:1.1457px;}
	.st262{font-size:0.8647px;}
	.st263{font-size:1.4111px;}
	.st264{font-size:1.9933px;}
	.st265{fill:url(#SVGID_148_);}
	.st266{fill:none;stroke:#0071BA;stroke-width:0.2;stroke-miterlimit:10;stroke-dasharray:1.2044,1.2044;}
	.st267{font-size:4.7132px;glyph-orientation-vertical:0;writing-mode:tb;}
	.st268{font-size:2.6px;}
	.st269{font-size:4.8352px;}
	.st270{fill:#9C005D;}
	.st271{fill:none;stroke:#0071BA;stroke-width:0.2;stroke-miterlimit:10;}
	.st272{fill:none;stroke:#0071BA;stroke-width:0.2;stroke-miterlimit:10;stroke-dasharray:1.202,1.202;}
	.st273{font-size:2.2864px;}
	.st274{font-size:1.4054px;}
	.st275{font-size:1.0606px;}
	.st276{font-size:1.731px;}
	.st277{font-size:2.4452px;}
	.st278{letter-spacing:-2;}
	.st279{fill:#FFFFFF;stroke:#FFFFFF;stroke-width:0.8;stroke-linejoin:round;stroke-miterlimit:10;}
	.st280{font-size:6.2437px;}
</style>
  </defs>
  <g transform="matrix(1, 0, 0, 1, 1308.338501, -203.768539)">
    <g>
      <path class="st25" d="M84.37,664.37l-5.35-1.82c-1.41-0.48-2.17-2.02-1.69-3.43l1.82-5.35c0.48-1.41,2.02-2.17,3.43-1.69 l5.35,1.82c1.41,0.48,2.17,2.02,1.69,3.43l-1.82,5.35C87.31,664.09,85.78,664.85,84.37,664.37z"/>
      <g>
        <path class="st23" d="M84.67,660.99l-2.09-2.59l-0.56,0.5v2.09H81v-5.53h1.02v2.35l2.43-2.35h1.42l-2.6,2.32l2.67,3.2H84.67z"/>
      </g>
    </g>
    <g>
      <path class="st26" d="M91.19,655.4h2.32v0.24c-0.68,0.06-0.8,0.12-0.8,0.9v1.5c0.17-0.02,0.37-0.16,0.63-0.4 c0.49-0.46,1.07-1.05,1.47-1.51c0.26-0.3,0.24-0.41-0.14-0.46l-0.24-0.03v-0.24h2.12v0.24c-0.65,0.08-0.88,0.12-1.46,0.72 c-0.26,0.25-0.94,0.91-1.5,1.46c0.66,0.78,1.63,1.9,2.08,2.38c0.44,0.48,0.56,0.55,1.1,0.61v0.24h-1.39 c-0.67-0.76-1.38-1.6-2.17-2.53c-0.2-0.24-0.35-0.26-0.49-0.25v1.65c0,0.76,0.08,0.82,0.8,0.88v0.24h-2.32v-0.24 c0.71-0.06,0.78-0.12,0.78-0.88v-3.4c0-0.78-0.06-0.84-0.78-0.9V655.4z"/>
      <path class="st26" d="M102.07,659.68c-0.05,0.23-0.29,1.12-0.37,1.38h-4.23v-0.24c0.81-0.06,0.87-0.14,0.87-0.85v-3.44 c0-0.77-0.1-0.82-0.75-0.88v-0.24h2.66c0.82,0,1.16-0.01,1.26-0.02c0.01,0.22,0.04,0.87,0.08,1.33l-0.26,0.04 c-0.08-0.3-0.17-0.48-0.26-0.66c-0.14-0.29-0.34-0.35-0.86-0.35h-0.83c-0.27,0-0.29,0.03-0.29,0.28v1.92h0.97 c0.65,0,0.7-0.13,0.8-0.72h0.27v1.79h-0.27c-0.11-0.63-0.18-0.71-0.81-0.71h-0.96v1.73c0,0.61,0.19,0.66,0.63,0.67h0.81 c0.53,0,0.62-0.08,0.81-0.3c0.17-0.18,0.35-0.54,0.47-0.8L102.07,659.68z"/>
      <path class="st26" d="M107.2,659.68c-0.05,0.23-0.29,1.12-0.37,1.38h-4.23v-0.24c0.81-0.06,0.87-0.14,0.87-0.85v-3.44 c0-0.77-0.1-0.82-0.75-0.88v-0.24h2.66c0.82,0,1.16-0.01,1.26-0.02c0.01,0.22,0.04,0.87,0.08,1.33l-0.26,0.04 c-0.08-0.3-0.17-0.48-0.26-0.66c-0.14-0.29-0.34-0.35-0.86-0.35h-0.83c-0.27,0-0.29,0.03-0.29,0.28v1.92h0.97 c0.65,0,0.7-0.13,0.8-0.72h0.27v1.79h-0.27c-0.11-0.63-0.18-0.71-0.81-0.71h-0.96v1.73c0,0.61,0.19,0.66,0.63,0.67h0.81 c0.53,0,0.62-0.08,0.81-0.3c0.17-0.18,0.35-0.54,0.47-0.8L107.2,659.68z"/>
      <path class="st26" d="M110.05,655.4c0.62,0,1.11,0.11,1.47,0.37c0.34,0.25,0.57,0.66,0.57,1.24c0,1.27-1.09,1.79-1.92,1.79 c-0.1,0-0.18-0.01-0.24-0.02l-0.6-0.16v1.36c0,0.73,0.06,0.75,0.86,0.84v0.24h-2.4v-0.24c0.75-0.08,0.78-0.13,0.78-0.85v-3.46 c0-0.78-0.1-0.79-0.78-0.86v-0.24H110.05z M109.35,658.32c0.1,0.05,0.34,0.11,0.64,0.11c0.58,0,1.31-0.3,1.31-1.39 c0-0.96-0.63-1.34-1.36-1.34c-0.25,0-0.44,0.04-0.49,0.1c-0.07,0.06-0.1,0.17-0.1,0.4V658.32z"/>
    </g>
  </g>
</svg>